<mxfile host="app.diagrams.net" modified="2022-12-21T11:01:47.402Z" agent="5.0 (Macintosh; Intel Mac OS X 10_15_7) AppleWebKit/537.36 (KHTML, like Gecko) Chrome/108.0.0.0 Safari/537.36" version="20.7.2" etag="4SUuMfP9CwM2gGUa2Cei" type="github">
  <diagram id="f0Ac5nlcogRsBNiwWJJz" name="第 1 页">
    <mxGraphModel dx="1103" dy="1717" grid="1" gridSize="10" guides="1" tooltips="1" connect="1" arrows="1" fold="1" page="1" pageScale="1" pageWidth="827" pageHeight="1169" math="0" shadow="0">
      <root>
        <mxCell id="0" />
        <mxCell id="1" parent="0" />
        <UserObject label="AUTOMOTIVE ASPICE研发流程" link="https://images.g2crowd.com/uploads/product/image/social_landscape/social_landscape_2ea5f7178028686921161d65d4be481a/bitbucket.png" id="Mc-il4vVqWPl5HhSfTiv-28">
          <mxCell style="swimlane;horizontal=0;whiteSpace=wrap;html=1;strokeWidth=2;dashed=1;dashPattern=1 4;" vertex="1" parent="1">
            <mxGeometry x="60" y="-10" width="650" height="660" as="geometry" />
          </mxCell>
        </UserObject>
        <mxCell id="Mc-il4vVqWPl5HhSfTiv-35" value="" style="rounded=0;whiteSpace=wrap;html=1;fillColor=#f5f5f5;fontColor=#333333;strokeColor=#666666;" vertex="1" parent="Mc-il4vVqWPl5HhSfTiv-28">
          <mxGeometry x="150" y="400" width="10" height="10" as="geometry" />
        </mxCell>
        <mxCell id="Mc-il4vVqWPl5HhSfTiv-36" value="Jira 和 Polarion 工具" style="whiteSpace=wrap;html=1;" vertex="1" parent="Mc-il4vVqWPl5HhSfTiv-28">
          <mxGeometry x="170" y="395" width="120" height="20" as="geometry" />
        </mxCell>
        <mxCell id="Mc-il4vVqWPl5HhSfTiv-38" value="" style="shape=flexArrow;endArrow=classic;html=1;rounded=0;" edge="1" parent="Mc-il4vVqWPl5HhSfTiv-28">
          <mxGeometry width="50" height="50" relative="1" as="geometry">
            <mxPoint x="329.02" y="395" as="sourcePoint" />
            <mxPoint x="329.45" y="475" as="targetPoint" />
          </mxGeometry>
        </mxCell>
        <mxCell id="Mc-il4vVqWPl5HhSfTiv-45" value="SWE.3～SYS.4链路存在的问题" style="text;html=1;align=center;verticalAlign=middle;resizable=0;points=[];autosize=1;strokeColor=none;fillColor=none;fontSize=12;" vertex="1" parent="Mc-il4vVqWPl5HhSfTiv-28">
          <mxGeometry x="345" y="426.12" width="190" height="30" as="geometry" />
        </mxCell>
        <mxCell id="Mc-il4vVqWPl5HhSfTiv-47" value="" style="group" vertex="1" connectable="0" parent="Mc-il4vVqWPl5HhSfTiv-28">
          <mxGeometry x="200" y="480" width="259" height="127" as="geometry" />
        </mxCell>
        <mxCell id="Mc-il4vVqWPl5HhSfTiv-40" value="平台入口多&#xa;研发体验差" style="whiteSpace=wrap;align=center;verticalAlign=middle;fontStyle=1;strokeWidth=3;fillColor=#d80073;strokeColor=#A50040;fontSize=12;fontColor=#ffffff;" vertex="1" parent="Mc-il4vVqWPl5HhSfTiv-47">
          <mxGeometry width="119" height="55" as="geometry" />
        </mxCell>
        <mxCell id="Mc-il4vVqWPl5HhSfTiv-41" value="团队协作效率低" style="whiteSpace=wrap;align=center;verticalAlign=middle;fontStyle=1;strokeWidth=3;fillColor=#d80073;strokeColor=#A50040;fontSize=12;fontColor=#ffffff;" vertex="1" parent="Mc-il4vVqWPl5HhSfTiv-47">
          <mxGeometry y="71" width="124" height="56" as="geometry" />
        </mxCell>
        <mxCell id="Mc-il4vVqWPl5HhSfTiv-42" value="研发流程不透明" style="whiteSpace=wrap;align=center;verticalAlign=middle;fontStyle=1;strokeWidth=3;fillColor=#d80073;strokeColor=#A50040;fontSize=12;fontColor=#ffffff;" vertex="1" parent="Mc-il4vVqWPl5HhSfTiv-47">
          <mxGeometry x="135.88" y="71" width="123.12" height="56" as="geometry" />
        </mxCell>
        <mxCell id="Mc-il4vVqWPl5HhSfTiv-43" value="现有工具定制化能力弱，有学习成本" style="whiteSpace=wrap;align=center;verticalAlign=middle;fontStyle=1;strokeWidth=3;fillColor=#d80073;strokeColor=#A50040;fontSize=12;fontColor=#ffffff;" vertex="1" parent="Mc-il4vVqWPl5HhSfTiv-47">
          <mxGeometry x="134" y="2" width="125" height="51" as="geometry" />
        </mxCell>
        <mxCell id="Mc-il4vVqWPl5HhSfTiv-105" value="" style="group" vertex="1" connectable="0" parent="Mc-il4vVqWPl5HhSfTiv-28">
          <mxGeometry x="70.5" y="456.12" width="98.99999999999999" height="87.77999999999999" as="geometry" />
        </mxCell>
        <mxCell id="Mc-il4vVqWPl5HhSfTiv-95" value="" style="ellipse;whiteSpace=wrap;html=1;aspect=fixed;labelBackgroundColor=#FFFFFF;fontSize=12;" vertex="1" parent="Mc-il4vVqWPl5HhSfTiv-105">
          <mxGeometry width="80" height="80" as="geometry" />
        </mxCell>
        <mxCell id="Mc-il4vVqWPl5HhSfTiv-48" value="" style="shape=image;verticalLabelPosition=bottom;labelBackgroundColor=default;verticalAlign=top;aspect=fixed;imageAspect=0;image=https://miro.medium.com/max/860/0*QlNEPudv4I6CHXDl.png;" vertex="1" parent="Mc-il4vVqWPl5HhSfTiv-105">
          <mxGeometry x="13.33333333333333" y="13.33333333333333" width="25.246666666666663" height="20" as="geometry" />
        </mxCell>
        <mxCell id="Mc-il4vVqWPl5HhSfTiv-51" value="" style="shape=image;verticalLabelPosition=bottom;labelBackgroundColor=default;verticalAlign=top;aspect=fixed;imageAspect=0;image=https://e7.pngegg.com/pngimages/475/330/png-clipart-bitbucket-computer-software-github-bitbucket-server-blue-angle-thumbnail.png;" vertex="1" parent="Mc-il4vVqWPl5HhSfTiv-105">
          <mxGeometry x="35.54666666666666" y="6.666666666666665" width="19.266666666666662" height="19.266666666666662" as="geometry" />
        </mxCell>
        <mxCell id="Mc-il4vVqWPl5HhSfTiv-84" value="" style="shape=image;verticalLabelPosition=bottom;labelBackgroundColor=default;verticalAlign=top;aspect=fixed;imageAspect=0;image=data:image/png,iVBORw0KGgoAAAANSUhEUgAAAPQAAADOCAMAAAA+EN8HAAACu1BMVEX///8AAIAAAP/TWCH//wD/ZgAAAH/SWiMAAIMAAIbTVyD/AADXSgDXURUAAIqzsZbd9O4AAHi9dkXTUhK1rJD/bQCL/PUAAPoAAHH3//8AAGYAAHAAAI21xa7J1MPNUA4AAO0AAADJsZnr7uYAAOQAANwAAOcAAGIAAPPy//6+wa0AALYAANEAAMCrxrAAAMrrAAAAAKQAAFpsbJXn5gBkvLW9imTZRACvmHLy9fGXxcLl6OgAALAAAJbY2NgfMlP///QUFKSKiqMqKnLMAAC/vgDSVgDy8gAAAErhXwBxZUrN7u3Y2gCiogDRvKnS49jDbj1FioZNb2y83Np+m5m5wL+ku7l7qKVll5RfnpuZqKf/29v/hYX/WVn/vLzDx8eVzcr/l5f/ra3/Li7/R0d9lon/JiGN089yt6dao5NLm5tBkJ85haUxeacjZpQbUocsPX5UVJeBgMCho8rIzNvgxMHwqZ3+0L1qd4ZSYYM7S4AiN48aLZ5aXbxvc8N/itG/xeqwssNFRbQqKsZ5eaUSIngzdoBGR6ieop8aI1kmZ3p1lojr4/Gmm7sAMUiVtpW24q/i+N9TUGyY15FIrEhps2kMhgyRkYAAbwAAegCCr7Q8Z3hhYmCj0aM7nTsUUG8FKmpdXdYoKJNtl3CUirG6uscxPGY6PsZQAHtXAGRbAGt1AFiZACaYAACCOACuFgCLawC5lwCYLACDeACxzgCTWQCFAD1YVgB3hwCsABcqPAAqKwBAQABxRwAdSQB3KgAOIwAZGQAdC0FoKFCmQwxrAgCkugCgQCleb0R+fj46GwBvLCZrKkCCoTlTAEVDGzkHDUZRH1qUrH2otWqaPjRsl1QkT5xul7R8MUowKidZJCR9YDilVgOHdFFFJjc9Y2BSUjWZsD1ReFVRbztkbABltpNonWPGcUcKLIlCcF8eAAAVGUlEQVR4nO2d+UOTd57HE7C5TEKeRMlJQklCEkKMBBIIlwSJYCEmGK2knQ5sZ7sQsEDV3bWo3aEUvHrZaTtdaQsjilprD3uM3elsp9XacTtpp7OLbrfuzGIL7Z+xn+9zJQHURKIk+rx/KHly+bzy+Xw/13OUxWLEiBEjRowYMWLEiBEjRowYMWLEiBEjRowYMWLEiFGiUrZubA0u9U7cbgU3bb5/S+VS78XtVXNbLYtV21YpWeoduZ0KbXazWO6qzW13j7GVoQfcrAd/9tDPle2bQh2Wpd6d2yI3Ymb9bPnyv4ONfa3NS70/t0PNbci3H/7F8ocehK32uwK6kmL++5+zUDALKpd6j265JMGDELdZDz60/BcPw9/aTXdBsraEHtGjvw//A85ctelOi97NnU5QV1dXONzds/VRUG9vX/9j27Zt277jH//pn+vuOGZlR2Voy5Yt9+c9sGnn4wP9u3Z7PCUl1Ta73W6zlniO73niX7b/cseOO4pZKdnS9kB7VRXLXTu47cmhYkO+WQ7KypLLzYZiu60afgDPk3tKR4KWOydJB9vur4UIXdf+FBDnm7MI5RutJTU1Gh6bg2EYh83GsOGxke47JXYH29pZCPno3mq7QU4SF1trNJhahaRWK0AYplL379w5Eroj8nQQNRN67b7HSowkcZbcWI2ZHCY1MjCPENjbNHDMXVu6/8AdkLWUrWDnzQc37rLnU8z51WBVwqfZODWbx+eoHKU74O1PPzP5bGip93nRCj7AqtoSbt1lo81cXKMGI/P4AEsIkBWq/vrnnj/EYh16bdMLz7ZlurEra6u2OJ2PFmdRzHa+Q80RU8C4OIrhgcFDv3rxpUOvvfTi8+2Pr/lbMKPDuCW0eUtn7lbazlnFmAnj8GKY+TzMsba+1l33/Isvv/7yyy8eYtXWT65py8gw3tzh7O4Ohdoe+fVGZ88QzWzkm9QxyDw+W2ECM6MC/NDrr7zyyr++BD7uHnxhzUjGuXgweHhkdPTxnfX72ve9+mx/CZWbs/JLHFh0LYNjY4rh/nqEzNK/9jqyNA5dW7+2aSyz6jNLz9j4QOngsaoqd92ObWubOEaK2VyNqTnR+MXD1Kb++nY3/in/S6//6tDzsKb17YOl/SoM279liTmSUPAytBFHB3dUQUFSu/03dnsJduS4vdCMPLxQrOLxkSBPQcQ2OQaewj0byX3o+TpW3aqJTaUDa4cVHL4Y2x/KkHBmCT760+4nfomM567dvscKRi709A/sPQ4FaH6hVWWCchOXAtZyf/0xfeyHn64dPPrYsAklNJAGGz+cGdSHhz17jlWhR/rBPVYDbl+zcXfpvn1H9x73YA6HSmUCqVTDA/WDtVXu6CehGyntH1YpOBzK/cWcpp4MCOKWkeG921FhVad9Zs+QMZ9ay4VDe48WaWt3DNaXEnrqmWM7YohhGdcjYijDMbxEQ8kbPJwzPJL2trb0rMU9u65q8IkhutLGZRh64pi+rs6t11fVgqJeXVdVu+MYEIPxUZnGj8ngHJ6GM9yT5gcAlG2T25+Gv+72bUMGuTzfgDfOVCVmqN77TK17zkeqatvrSwfAxAqMw15AYrajZylQEpYytHPwabxtPm402mpOnDx58o0TNTbKx+FH8EAiq9XX4e+u09ceq68vfawfJ8Y4HB6PN4+ZwxOz17YtLdb1VbmzHc9Se2zFNvGpN0+feeut06ffPHWimnZ0u8kxXvpU/eCxY8cGARhSE2qnoSrlLwBMeTjE8KUmu7Y6UN8Mnu0pNFu/ali++u13vL4rb69e3vDmCauZwDbUqFVqCNxr+wHXhNrLBe0bJ6CeTN/aLLQZYvZTx4vzC2veXA3M75Yta/S+8/by5asB24YXomabAuVpYlCCGmoO+0bMsKz5irF0rcODWyBm7wFXliPmhjPvvb8M9P4HDctBDaeqcWoj2wTlGHgtm4eXZTcCxsUXqw6kZwiXtBZVHfUUgxvbPgTmT3571udtBOp3T69G1B9hBtzUJWgFJ4RKC614R3p2mpKNO58YMoA5DSdgPZ/5+N9+97uPfUDtO4OgG04Wy6mpSbLQ+LJek5YOXjnpMeIebEUL+vf//um99977sZeEbnjDThUpNhOWNDRHLFaMpuGQ1NLjIXpmMx8W8epP/gDM937qQ+4Nvn2C6i3NBs1nKg4/aWq+2DGSfg5u6SGHYMUnkTufRszI0u9faVj9EUYxG8Tnzp//DNPwFqy+rgPNE2OT6efgHb3V9iGPx2a2n8Kj9ef3fvqH315obHnn7YYPxRSz7eQX61au/KQJ4nZy1BDsIYKnlYMrJf6uiT++et/Fi++96rGfaMAj1+f/8fF7Ld4PTn/0ITUrktvOAfLKleu/VPHFyVkaJOY40qowq5yNeFvKysoaGxtbLloNb+BJanXD22fOn/n8K14xNR+z/QmY77nnnpW6vyrQEazkoHl8bKxjqUlpKcMRb9kySt5dkJVOfvhRA0C/+ZWqxlZIhW3rOYL5npUrb2pZi8WO1qVmpRVG2ZhW2QtQhBiqT5w8deok30oTQ4CjmAlqdpLLmgd1mXosXeqy8HQs87LG+9BY35xfCMqPmSIYh7kUM6L+xMETJwMNRRlU6ePdaTFGUQYjZcvidNETNzAhlc//IsoM0Ou+NInFnESxeRxMwROLNer0KMGbJ1rimZf5dpnnM8tLvlwfZcap/6TW8BMNZjyOqsmh5tWwx9Ohx1R2xS1oPJK9kD8fuvjc+pWx0ECt+xoT8xM1NV/95zVrhvkaRToMUTpm5zg3QL86H7r4m3XxzHgw+1qRMDWPo25aMzo2jE12LDUyi/VcZK6hl7XMgzbbvtHNZaaoE+k9UNfN17DXjo2MTk6Glr4C/4tvLvNcaLk8v/rcAsxAvf78ZxxxAr0HD58K8/nYZGtoNA1OxPlPbxxwI5RlvoHYQCa3a775r3m+TZp6/VufcW5saw6GATGHLeZj/SPdnUuNHAdd1nJhOnLx4n0DVjplmY1WzjnUYizEjFN/gkqzG9iZrXKoMA6aLWnYwyNpBN1Y5o3Mhp3OAzXF9GzfbCgZ/lK3/lrIhIe/dcPSjMdTNTU1DWNosiYWm9KgqyahW3xT4aCk2cJqvnyp2oC7t8F65NwXODKlhamhz7xBx4UO6ULkNvHEPFSJpgd0Y8v01HMd1DMdl/ueHLJaS9747/PradiV6wl3noePPBwK0usXKXwxZ3w0NNKP8TV8RRpA/8XXWHZhqiuuOLRU9vSu+fb3V9atJ7ROd/4KiItvz7P5yvX/o7pRMOPxOWu7O0OTmCYtLN01G5nqmjfGUTZXVt6/5eB9hDa2hu4HhdH2dx+cX7eOsjlpa93XUJBev0hBB7RGnM4xtQZLA2hLx0zHtV5rdpIipjwWtN0VPnjwj99JA+AGwnIcGS9SONcuzVCS5nBgPUPgdo5h6eDeN6WgMxy++h1yfwIaumuOhr3QuuaxyVMpIUuDZ3d2jjr6MhQaDdU6Jnzed9+9cn4d7urnm8CUC0Hz1E1NKvxUOx5UZGPOztH0mg4mJ2jDG1u83x985H+lV9atXP+lQ7xQo8njYY4mh4KDn5IhFivGnM6OzIS2SCSS5llowxsvdOXmOsO/vk965cpfFXzxQofz+JgKGmkMnaYAFZkijY/ZXleS8MxMeOICKmkmOnOROp3hgxvXmNgaCOLzjc1RK2qsGhM6LII8PP0m/jdU88xs5AIIP57pDefS6nT+7ds1ap4GlnY8N48PwazEZuWoFMjDTZlwilWcLKtmp71ldAfeMtUVpc6d9fn+b62aPf+gNXi4wmqw8VQYNFqqNKi9k5JkZrqlrMXnKyOb0MayadLBkakjLY0t733r4IjFcyMaeLi6xFzMdyg0/PQ6ynFjrYr4vNNTkbPeshbvdGRqairi8/loYzvRKvde7RkbVvDByWO4IWEhW5vtw00czdqMgpZ0Rby+qYmrF33eC5HZGSfinJma9n3vJAyNT1Wnu1jNI5PDaGjAj6lW0AUeJrvxyOQ4L51PNJonywRY1Rme8nqnZ2PuARCc+L4Vh+6aAqcvm0KvSEJjJkwcP0cCD8dKhraOmPZnELRkyjc9EQbDRmZXxc/ru0JdM7NTkWkUz70TxJuDh0fHVSiDsalQzgNqTs3W0OhY5kD7J85GJsIQn2c74l+wHHptFlZ5CxHRyyLPkRdPB0Nj4yqML+bHXM+Dqce7OzPnBhnN4R+mwqHvz87Oud2BMghZ20sgN4KWNXojE4QjKCWVB8bVMdR4SXpAwsqYjNUZDgebnZWr5lRTXbPTZ3/44SyksEY0VARN+3xnv+8iq+tg5cgkYW0EjspQbH/G2BksjTDmHnoLPhc5ezYyBdAQzqdmZrqg256B5T0VvSeCpPvA5DA6tZA4l5KvUaXNsdqbkrJyCsJ560TE23JhKhx7GwSJM3bK2zyyX6VQk2dFaxR/ziBTz1MHQp6AotQXmQhK4rvF5rhlKxnxVIsV6KoONCBUpf95/tdUEGXtq1cjvunZrhv1x0GP0V5dw8YUarUK0+zKWFN3hs9GZpxXfzg7m8AVlc2XjFny/OISMaZqwmy2R2/D/t0SWYKr/Kzm4KpViYQlyQFrFn5VgNGmKSmU785YUycl55PkkSK50SjPMvZl4BjhJtRrjD0Maru81PtzW3S4OvbUnfwjt9TBLf68nIIVRf6UZQkLroU2rqvgpbjD/Ma+WzcQleS4AlyZTMYNSFf4U/KNWhcuLb7hJzaKEvhc8+VY/87Kqr5VczJlDlcoFIkEIJFQqFuRin9mRbkQVL4C39AK0VZ5QSIfrPTEmTrfc2v6S72rXCTgZuPicrNl5dIUFL05Mi5ISEJzBeiLE4J29xXHmbpwl3PxezNP/oCQAAZDEw+EgbnXCyavHBn6uig0fH1i0Jbu4/HnKxkvpT5vSaQEs0wo0wlFBLbQteh4lhPn3klAQygrjIOWW3tTXYMrCwhmEbdgQ9GGCp2IoE4k5lxX+g24iOtpk4JmXbbGm9qc8mCm1eHGFQX85O4haq4okNIfNzlo56U5J5yad6c2mCldQhTCBFwqUWlRMONyy7Vx7/L7tf5rpTJ4Kc4QFr9WP+ctyUHTl8VEQ/hPKa1R9DK0P9miFfQzBeUiULmLfkKprZBys3U6bqBCS9P5K3D5IR9zdTo9ZD18O4flXhHgllcAJ/EGLTxRUeHKRv+IQApPJBIig7sL51AbU9plFpCGjnqzPoBLSj3jd+kgicsEMpTCKygb5hFxSqtFwU+mZ0kC5SKhqDxgccE2gqbztD5QLiQCRTZ8g2yuEyyoA7Y50FnFKWw9lFJiCbtinnMTIreKuEIZOLwAEi1kWqGU3Ok8Ef5bVQRE3GyuAKCl6IFI6oKwyEVVSI4MD4gImqoB4BUBNyHo4E9zz7OV23tTVo/6cefmCjdc6w0F60S4iQRQsxEpnChc8mRolXK5MvRfChoeIlTcvXPQGwho8BOCWSYS6RKCZm21zr1iIIWJq4iAjg9bMcrTyfDQvkLrz0NGhN/HFYXORksVahAdBZ2NyhtBdhy02xWQBog1DQ8SLPYqL81d1Vny6q0pot6gw71OeA1oSUAUTWeWFfjSJN5LQoP1ZDGWRmQiGVdYEAPNsjRb8sjoLZEkWuBejpqavplbqqrwAsLxZAS0W+/Wk3LjbpiDjCuQ5ZE/AQoA5PqnoMEJ4N0sGlogc2n1EkssNCvZlIUU7KevUqXvn5KfonRNQAt0fgJKqKOULVuFPwEksgBlnhwhvm4lUWhRoJP+QXD3lhWQPrhIaMth6jogs9VmIKkNP6XkRj9zoEVUmAWDrkIdIXokc1mUhLTo3QLcvwlogY7K3CS0zEVl8kVCsyxUs2W21dD3+jKmxNYENLmm50HnlOM7++MKotCAGiObAiGgRTQjDg0hni7bFgvNCu2m7r9Z46DvZGdIBfUGnSAWWojmCAIaugKvXLJFeJ0BInowPH7nxTKxaEtHi5xFQ1u22klUI2eYbkEMKRiaacmUhTdVEheqQLjEUwBtIaHxYhyJrKtoaIGMbsYIaNmP9DcvGpoV3EWt5eL9R+gZkmHxZbiELE6IfSMC94pybjy0QBcn4XWgpXRxvnhoS081FcA949ESbfFluMUlIoJwzHM5FDTp3qIKOpGR6Yx1W6BZkkuUfQt3jXlSSF1EGFMW7RuJZjMayLjCigU+dzugWYepWJY11DcavZR10dR6Im7JpPQzfjKg4ymLG/9aVLcFWknfdFV+vLXXHqW+tDhqZUU5EaGpOOz+UcalArokQHQRlBu4c5DwwfhNQCc4DY3V4SOUUxsHWmMO+BRfWlzm8hPjIjCDHh2E0BK5GvoKtPvEL0L7dwUxX7gZaLxvSXrcKOmhcpXcvjVMR/OsLPtji4JmFZQTjYIw4KqokMqIdEt2kH58YibQFeiVLKW+QBf9OZKDduONiyAb1emJ9ZakmulYZt7bTZcrsHV8cdAWKRHLuCJheblQQDKTHp0jxKtNUaCioCKAahOujChZk4MmZhXwPdyAzpXUTL3bQyfovpj77Rb+ZnHQ+OCbS5Ug6G92uZQO5hVCYm9RPQavcGVkQ5YnSgYakgS5iGTlyUFLoivZ2uOk76xsK10kNEtSgQORxZdMKCuITjeVFeDw1LiHKxByyc47D82QsnVx0PDZWOiYwzp4v0b6U3LQrMoj0c7S2dlL3ApKvjcFJXjRjyKhSEYM/7iu+Olv0Y9CIT4PEcDP4aJcgBwMRqED+CG66Lg87gAeRAdpOfgGOtAjTfKQUXScYOjt7CR6L9vWVEz/LdoCFxqBugqK5gUai9YV0MlkOq60IGYEXICLXgbKInw7emBk3hs2SLk6NEdO9pio5BI9Ba/uyXUiw+enbCBsiZ2BxkvpRoXoNV5MWOSXJGsjZfdu+n9rsdeZ2wPNtf3OPynDEr0xvL2vM7fHZvzpLjj9prOPqkrMtq25ub0/pfddZFOkwyWUqc1HnLnOdLhVwq2XJHpyQnFvriWjTw5OXJXRGULJXeHbuGKSdWqP2qazOvoMdx80q5K8Zye4d8Zc2LFoWchD1vbeu4cZddboOGb+ro6l3pHbqh6PPMt8F8VuXJJHjVm23rskR9MK7rbtuguK7ng19/T1ZO7lOzcpS8fhjqXeB0aMGDFixIgRI0aMGDFixIgRI0aMGDFixIgRI0aMGDFixIgRI0aMGDFixIgRI0aMGN0q/T8HpPeqCIVZwgAAAABJRU5ErkJggg==;" vertex="1" parent="Mc-il4vVqWPl5HhSfTiv-105">
          <mxGeometry x="10.14333333333333" y="37.78" width="23.69333333333333" height="20" as="geometry" />
        </mxCell>
        <mxCell id="Mc-il4vVqWPl5HhSfTiv-101" value="" style="group" vertex="1" connectable="0" parent="Mc-il4vVqWPl5HhSfTiv-105">
          <mxGeometry x="49.496666666666655" y="22.20666666666666" width="39.00333333333333" height="35.576666666666654" as="geometry" />
        </mxCell>
        <mxCell id="Mc-il4vVqWPl5HhSfTiv-97" value="" style="shape=image;verticalLabelPosition=bottom;labelBackgroundColor=default;verticalAlign=top;aspect=fixed;imageAspect=0;image=https://imgcache.dealmoon.com/thumbimg.dealmoon.com/dealmoon/ff8/3c3/82c/a0f14149cee30479a192b04.jpg_300_300_2_2adc.jpg;" vertex="1" parent="Mc-il4vVqWPl5HhSfTiv-101">
          <mxGeometry x="3.333333333333332" width="21.333333333333325" height="21.333333333333325" as="geometry" />
        </mxCell>
        <mxCell id="Mc-il4vVqWPl5HhSfTiv-98" value="&lt;font face=&quot;Times New Roman&quot;&gt;FWS&lt;/font&gt;" style="text;html=1;align=center;verticalAlign=middle;resizable=0;points=[];autosize=1;strokeColor=none;fillColor=none;fontSize=12;" vertex="1" parent="Mc-il4vVqWPl5HhSfTiv-101">
          <mxGeometry x="-10.99666666666667" y="5.576666666666654" width="50" height="30" as="geometry" />
        </mxCell>
        <mxCell id="Mc-il4vVqWPl5HhSfTiv-102" value="" style="group" vertex="1" connectable="0" parent="Mc-il4vVqWPl5HhSfTiv-105">
          <mxGeometry x="26.413333333333327" y="45.55333333333332" width="46.16666666666667" height="34.446666666666665" as="geometry" />
        </mxCell>
        <mxCell id="Mc-il4vVqWPl5HhSfTiv-99" value="" style="shape=image;verticalLabelPosition=bottom;labelBackgroundColor=default;verticalAlign=top;aspect=fixed;imageAspect=0;image=https://imgcache.dealmoon.com/thumbimg.dealmoon.com/dealmoon/ff8/3c3/82c/a0f14149cee30479a192b04.jpg_300_300_2_2adc.jpg;" vertex="1" parent="Mc-il4vVqWPl5HhSfTiv-102">
          <mxGeometry x="5.5555555555555545" width="21.333333333333325" height="21.333333333333325" as="geometry" />
        </mxCell>
        <mxCell id="Mc-il4vVqWPl5HhSfTiv-100" value="&lt;font face=&quot;Times New Roman&quot;&gt;Phenix&lt;/font&gt;" style="text;html=1;align=center;verticalAlign=middle;resizable=0;points=[];autosize=1;strokeColor=none;fillColor=none;fontSize=12;" vertex="1" parent="Mc-il4vVqWPl5HhSfTiv-102">
          <mxGeometry x="-13.833333333333332" y="4.446666666666665" width="60" height="30" as="geometry" />
        </mxCell>
        <mxCell id="Mc-il4vVqWPl5HhSfTiv-27" value="" style="group" vertex="1" connectable="0" parent="Mc-il4vVqWPl5HhSfTiv-28">
          <mxGeometry x="60.000909090909076" y="20" width="541.0909090909091" height="354.75" as="geometry" />
        </mxCell>
        <mxCell id="Mc-il4vVqWPl5HhSfTiv-1" value="SYS.2&lt;br&gt;系统需求分析" style="rounded=0;whiteSpace=wrap;html=1;fillColor=#f5f5f5;strokeColor=#666666;fontColor=#333333;" vertex="1" parent="Mc-il4vVqWPl5HhSfTiv-27">
          <mxGeometry width="146.54545454545456" height="53.75" as="geometry" />
        </mxCell>
        <mxCell id="Mc-il4vVqWPl5HhSfTiv-2" value="SYS.3&lt;br&gt;系统架构设计" style="rounded=0;whiteSpace=wrap;html=1;fillColor=#f5f5f5;strokeColor=#666666;fontColor=#333333;" vertex="1" parent="Mc-il4vVqWPl5HhSfTiv-27">
          <mxGeometry x="22.545454545454547" y="75.25" width="146.54545454545456" height="53.75" as="geometry" />
        </mxCell>
        <mxCell id="Mc-il4vVqWPl5HhSfTiv-3" value="SWE.1&lt;br&gt;软件需求分析" style="rounded=0;whiteSpace=wrap;html=1;fillColor=#f5f5f5;fontColor=#333333;strokeColor=#666666;" vertex="1" parent="Mc-il4vVqWPl5HhSfTiv-27">
          <mxGeometry x="45.09090909090909" y="150.5" width="146.54545454545456" height="53.75" as="geometry" />
        </mxCell>
        <mxCell id="Mc-il4vVqWPl5HhSfTiv-4" value="SWE.2&lt;br&gt;软件架构设计" style="rounded=0;whiteSpace=wrap;html=1;fillColor=#f5f5f5;fontColor=#333333;strokeColor=#666666;" vertex="1" parent="Mc-il4vVqWPl5HhSfTiv-27">
          <mxGeometry x="67.63636363636364" y="225.75" width="146.54545454545456" height="53.75" as="geometry" />
        </mxCell>
        <mxCell id="Mc-il4vVqWPl5HhSfTiv-5" value="SWE.3&lt;br&gt;软件详细设计和单元构建" style="rounded=0;whiteSpace=wrap;html=1;fillColor=#0050ef;strokeColor=#001DBC;fontColor=#ffffff;" vertex="1" parent="Mc-il4vVqWPl5HhSfTiv-27">
          <mxGeometry x="90.18181818181819" y="301" width="146.54545454545456" height="53.75" as="geometry" />
        </mxCell>
        <mxCell id="Mc-il4vVqWPl5HhSfTiv-6" value="SWE.4&lt;br&gt;软件单元验证" style="rounded=0;whiteSpace=wrap;html=1;fillColor=#0050ef;strokeColor=#001DBC;fontColor=#ffffff;" vertex="1" parent="Mc-il4vVqWPl5HhSfTiv-27">
          <mxGeometry x="297.6" y="301" width="146.54545454545456" height="53.75" as="geometry" />
        </mxCell>
        <mxCell id="Mc-il4vVqWPl5HhSfTiv-7" value="SWE.5&lt;br&gt;软件集成和集成测试" style="rounded=0;whiteSpace=wrap;html=1;fillColor=#0050ef;fontColor=#ffffff;strokeColor=#001DBC;" vertex="1" parent="Mc-il4vVqWPl5HhSfTiv-27">
          <mxGeometry x="315.6363636363636" y="225.75" width="146.54545454545456" height="53.75" as="geometry" />
        </mxCell>
        <mxCell id="Mc-il4vVqWPl5HhSfTiv-8" value="SWE.6&lt;br&gt;软件合格性测试" style="rounded=0;whiteSpace=wrap;html=1;fillColor=#0050ef;fontColor=#ffffff;strokeColor=#001DBC;" vertex="1" parent="Mc-il4vVqWPl5HhSfTiv-27">
          <mxGeometry x="349.4545454545455" y="150.5" width="146.54545454545456" height="53.75" as="geometry" />
        </mxCell>
        <mxCell id="Mc-il4vVqWPl5HhSfTiv-9" value="SYS.4&lt;br&gt;系统集成和集成测试" style="rounded=0;whiteSpace=wrap;html=1;fillColor=#0050ef;fontColor=#ffffff;strokeColor=#001DBC;" vertex="1" parent="Mc-il4vVqWPl5HhSfTiv-27">
          <mxGeometry x="372" y="75.25" width="146.54545454545456" height="53.75" as="geometry" />
        </mxCell>
        <mxCell id="Mc-il4vVqWPl5HhSfTiv-10" value="SYS.5&lt;br&gt;系统合格性测试" style="rounded=0;whiteSpace=wrap;html=1;fillColor=#0050ef;fontColor=#ffffff;strokeColor=#001DBC;" vertex="1" parent="Mc-il4vVqWPl5HhSfTiv-27">
          <mxGeometry x="394.5454545454545" width="146.54545454545456" height="53.75" as="geometry" />
        </mxCell>
        <mxCell id="Mc-il4vVqWPl5HhSfTiv-11" value="" style="endArrow=classic;startArrow=classic;html=1;rounded=0;exitX=1;exitY=0.5;exitDx=0;exitDy=0;entryX=0;entryY=0.5;entryDx=0;entryDy=0;" edge="1" parent="Mc-il4vVqWPl5HhSfTiv-27" source="Mc-il4vVqWPl5HhSfTiv-1" target="Mc-il4vVqWPl5HhSfTiv-10">
          <mxGeometry width="50" height="50" relative="1" as="geometry">
            <mxPoint x="169.0909090909091" y="26.337500000000006" as="sourcePoint" />
            <mxPoint x="394.5454545454545" y="26.337500000000006" as="targetPoint" />
          </mxGeometry>
        </mxCell>
        <mxCell id="Mc-il4vVqWPl5HhSfTiv-12" value="" style="endArrow=classic;startArrow=classic;html=1;rounded=0;exitX=1;exitY=0.5;exitDx=0;exitDy=0;entryX=0;entryY=0.5;entryDx=0;entryDy=0;" edge="1" parent="Mc-il4vVqWPl5HhSfTiv-27" source="Mc-il4vVqWPl5HhSfTiv-2" target="Mc-il4vVqWPl5HhSfTiv-9">
          <mxGeometry width="50" height="50" relative="1" as="geometry">
            <mxPoint x="180.36363636363637" y="101.5875" as="sourcePoint" />
            <mxPoint x="360.72727272727275" y="102.125" as="targetPoint" />
          </mxGeometry>
        </mxCell>
        <mxCell id="Mc-il4vVqWPl5HhSfTiv-13" value="" style="endArrow=classic;startArrow=classic;html=1;rounded=0;exitX=1;exitY=0.5;exitDx=0;exitDy=0;" edge="1" parent="Mc-il4vVqWPl5HhSfTiv-27" source="Mc-il4vVqWPl5HhSfTiv-3">
          <mxGeometry width="50" height="50" relative="1" as="geometry">
            <mxPoint x="202.90909090909093" y="176.8375" as="sourcePoint" />
            <mxPoint x="349.4545454545455" y="176.8375" as="targetPoint" />
          </mxGeometry>
        </mxCell>
        <mxCell id="Mc-il4vVqWPl5HhSfTiv-14" value="" style="endArrow=classic;startArrow=classic;html=1;rounded=0;exitX=1;exitY=0.5;exitDx=0;exitDy=0;entryX=0;entryY=0.5;entryDx=0;entryDy=0;" edge="1" parent="Mc-il4vVqWPl5HhSfTiv-27" source="Mc-il4vVqWPl5HhSfTiv-4" target="Mc-il4vVqWPl5HhSfTiv-7">
          <mxGeometry width="50" height="50" relative="1" as="geometry">
            <mxPoint x="225.45454545454552" y="252.08749999999998" as="sourcePoint" />
            <mxPoint x="304.3636363636364" y="252.08749999999998" as="targetPoint" />
          </mxGeometry>
        </mxCell>
        <mxCell id="Mc-il4vVqWPl5HhSfTiv-15" value="" style="endArrow=classic;startArrow=classic;html=1;rounded=0;exitX=1;exitY=0.5;exitDx=0;exitDy=0;" edge="1" parent="Mc-il4vVqWPl5HhSfTiv-27" source="Mc-il4vVqWPl5HhSfTiv-5">
          <mxGeometry width="50" height="50" relative="1" as="geometry">
            <mxPoint x="248.00000000000003" y="327.33750000000003" as="sourcePoint" />
            <mxPoint x="293.0909090909091" y="327.33750000000003" as="targetPoint" />
          </mxGeometry>
        </mxCell>
        <mxCell id="Mc-il4vVqWPl5HhSfTiv-110" value="" style="group" vertex="1" connectable="0" parent="Mc-il4vVqWPl5HhSfTiv-28">
          <mxGeometry x="370" y="395" width="140" height="20" as="geometry" />
        </mxCell>
        <mxCell id="Mc-il4vVqWPl5HhSfTiv-30" value="" style="rounded=0;whiteSpace=wrap;html=1;fillColor=#0050ef;fontColor=#ffffff;strokeColor=#001DBC;" vertex="1" parent="Mc-il4vVqWPl5HhSfTiv-110">
          <mxGeometry y="5" width="10" height="10" as="geometry" />
        </mxCell>
        <mxCell id="Mc-il4vVqWPl5HhSfTiv-31" value="AEP关注的研发链路" style="whiteSpace=wrap;html=1;" vertex="1" parent="Mc-il4vVqWPl5HhSfTiv-110">
          <mxGeometry x="20" width="120" height="20" as="geometry" />
        </mxCell>
        <mxCell id="Mc-il4vVqWPl5HhSfTiv-115" value="" style="shape=image;verticalLabelPosition=bottom;labelBackgroundColor=default;verticalAlign=top;aspect=fixed;imageAspect=0;image=data:image/png,iVBORw0KGgoAAAANSUhEUgAAAOoAAADqCAYAAACslNlOAAAABGdBTUEAALGPC/xhBQAAACBjSFJNAAB6JgAAgIQAAPoAAACA6AAAdTAAAOpgAAA6mAAAF3CculE8AAAABmJLR0QA/wD/AP+gvaeTAAAACXBIWXMAAA7EAAAOxAGVKw4bAAAAB3RJTUUH5gccEC02V5AKDgAAP19JREFUeNrtnXd8HNW5v593ZotW1bZsy703XAAbYzrEhBIghYQWSAdDKAFSL0lIAZLchNw04kCoN4203yWkQcAmdEiAgOnuVa6ybKtrpd2ZeX9/nF1pV8W2sKVdS+fhI0Czq92zM/Pd95y3HbBYLBaLxWKxWCwWi8VisVgsFovFYrFYLBaLxWKxWCwWi8VisVgsFovFYrFYLBaLxWKxWCwWi8VisVgsFovFYrFYLBaLxWKxWCwWi8VisVgsFovFYrFYLBaLxWKxWCwWi8VisVgsFovFYrFYLBaLxWKxWCwWi8VisVgsFovFYrFYLBaLxWLJFyTXAxgAOEAEcIFQxnEPSAKJXA8wk6bbJqDqieu4YUTDIC5o6j7RAPAcwokkgV987cZcD3fAYIV68AgB5cAoYDIwLvX/g4EyIAZEMcINgBagEdgJbAHWp362A7swIu414j+aAJ6LxhLFggwHxgKTgAlARWrchUAB5ksGzJdKHKgBdgAbgbXAZkWrVP0GQbTwuq25vRL9ECvUAyMKTAFOBE4GpgMTgWIgzP6fX8UIswnYBKwGngX+BaxKHT9g4ovHQRBCHW+owBHAqcDRmC+WitTnCfXgJX2gFajGfMm8ATwh8KoTkq2oBhG/Eq7tpbM/gLBCfWcMBRYC5wPHYSyne0Cv2JkAY1mXAQ8BSzBiCHr6Qs0/Gw9KWEQPQ3k/cA4wCyjphXPTCqwDngL+JsoLTUMr6wp3jyN2bWUvvN3AwAq1ZwzHiPMS4CjMtLAv8DE3/9+AP2As1z6nxs2LxwESFnQ+8CngLGA0+3Xd1dh5FFTbD0v6T6XD713SAPwb+D3wj52fKdo5/I4mYtdYwfYUK9T9owA4E7geM80N7+W5PuYGrQWqCmPRpjGjhkamTRkzesyo8tHhUCji+wFNzS3U1jdRtbOG7Tv2UFvfRGNTHN/fq8FUYBvwJ+AeYDldWFhdPI090kyhOuOBq4GPAyP28RlbQWtR3YXILomWBFI8tExKKsYTKRwCCH4SvBa0tQmN10JrI5psAa819RLSnXBbgZeBOwV9SCSoDdS1FrYHWKHum/HAFzA3e1k3z2kG1gAvAS+XlRat+fL1F4bPPfvY+RXDBh9bGIvOCYXcYa7rxABHAd/zSSQ9WluT1NU3saGyitXrtvDKa2t56dXVrNuwncameHdjUowj5z6MYHe2DWTxOBQNO8jZwI0Yy+908xpVwGto8B8C/3Vn5Izq0KxzRkvZqBMlHDsKJzQZxykFiZi/UFAffA/1E2hLPdpQjdZvJ9i1Aa3dagQceCnBdrq94sDTwI8QnkDxrVj3DyvU7hHgJODbGCva8VylxfIY8A/g348/+uPmUxfOm0tL64X4wZmoTgDC7dPIju8g7e8kxhp5rUl276nn1TfWsuSJZSx58hXWrN+G5/ldjTGJWQv+N/DsS18Z6c8ZFRkEeh1wHcYL3ZFm4D/Aw/jeP2lNriq44rfl4LyHwDsP9BiUsvaQTDenRtIDT50KL4E27SaoXou/9Q20eh3a2pj9OdupAu4SuCPwqYoWC+6iTbm5yocIVqhdE8KsRb+LCVd0pBK4P/WzSvX1MHVVC/G8S4HTMKGNd44IOA6B51G5eSePPvEKv33gSV56ZRWJpNfVX2wDvv+3z1Q8+p4Z0Rt85SOY2G0mCYw1u1d9b2nsshNqCT4zGq/5I6hegnEu9cTj2/W4EUi2EOzZhL95GcGW19CmPR2EDZglwuOIfC1yze/+k7z/sxR87D8HeNn6L1aonYkCVwDfpLNFagYeAG4DXlPdDntem4fqtcAH6H5q/M5xzM1fXV3Dg39/nrt//QivvbWBIOi0NG3+wNzS7T+9cNCEESW4QbYFXw38WFX/X2T6SXvcoz9RSuCfD1yDCdMcbI81iAOBT1BTib/2WYLNy4yFlQ6zcJE1UlDyDbd8/J+0tSEZ+fAzB30o/QEr1GwE+DTwfTqHLjZhLOz9P/zWFU2fv/LccoRPA1dikgV6eWRmarypcgd3/+oR7v3NEnbuqs16iusIZ80dwq0XVDC1pBk/8D2QhwRuaXmr8tWyHz8nNNfPB76M8QDHen/cDvhJgp2r8JYvJdi5CoIgezrshuqc0pGLQ/MuuC3YtWFX+OTben1YhxpWqNkMApZikgAy+TdwA/Dcs0u+ryceNXsm8C3g/RzodLGnOA6e5/HkM69z8//8ln+9tALNDJ8gnDp/HD/+xGR/VtHOnyV2bb4lNOvsPeFjPx5F9SLgG5gEh75FHDReh7/mKfw1T6Mt9dnWNRT13NGHPxo68kM3ydhLXsF7Awkf0efDzFcO/pTn0CYEfBCTSgcm9PEw8Jk5Mycsq1r/Fxk3fPDpwJ2YhAfnnb3NAaCKI8LkyaN590lH0BxvZfmqyixn04ZtdaysjemUMz/6xuRP3fqUO2R8FPgqcBP7DtP01sCRcAHOsCk4ZaPQhio0XtduWQPP0eaaaSJykhR6W6R0xpqbvniO3vzdX+VmuHmGFWo2CUyu7TSMn/b/gC+eetIRG15YcpuLn7gQWIxJFcwtqgwaVMKpJx1BNBLm5dfW0Jpoz4HYuKXa2bWnce78GSNmlA8tOwvVy+iLqe6+EEHKRuIMnYw27kIbq9MPgJ9E67YNI1yw0IlFawnF3rrpixf5N3///lyPOudYoXZmA8aK/h/wx6994eI9v1z8eRfRTwI/xKQL5geqRCJhjpk/g/LBJbzwyiri8da2h9du2OY0NbfMOOX4ObMKCiJ5dK0ViZXhDJtixNpQZQ6LmDBP7eZiKRxyslNS0QCy7Kb/uiS4+fu/zfWgc0oeXby8ohHYpdWPJE89ca6TEumtwLBcD6wrXNdl7uGTGVJWzPMvLqel1VTOqcLbKzYRjYQ54ZiZOG4+uSQUiRbhDJtkpsH1VW0OM5ItaN32Aqd8/PFSNKQB31920w0fHdBitULtBq19FOIJCMu5GEtakesx7Q3HcTh89kQioRDPv7icZGrN6gcBb63YxOzDJjBtytjsvN2co0ikCGfIeLR2C9q0u12srQ1oS32BUzFjgUQKN7G1+a2bbvkkN//PwBRr3ztDDhW8AArCR2NCMiNzPZx9oko4FOLqRe/jik+cheu0X9rq3XV8+4e/Z1NlVSoum0dogJSOIDTvAqRsRPsXiTgE29/GX/dcOep/h9GFJyOC7n441yPOCQNVqLMxebBfwOTyZqHV/wB0NCY1L/eOo/1FlcLCKDdcfyFnLJyX9dCLr6ziZ/f8Da/rzKYcjzvAKZ9AaM77kUghbfmWQYC/5imCnWsnInIrwiRUUN2W6xH3OQNx6jsN+DXwUeAMTLLCEkyFB7r7ERAnjAlnfJRDLdasUFxayJQJI/nnM69RW9dec75m/Tbmz53GpEmj8mwKbHBKKyAZJ9i1wRwQgWQcknHcUbPH4IajiD5OfId38/d/l+vh9u25yfUA+pgoplRtfsax4zFdGdDdj6YqRILTgUs51ESaxg9YcNR0PnvluUQi7fkY1bvruO3Ov1BX27ivOtLc4IRwp5+KM2xyqj0TIIK/YwX+trcA+QgqH0BTX6gDiIEm1DOAizsc24nppJC6OXQo8Hm6rjw5ZBARPnrhqSw88fCs448/8xpLHn85P4WqihQOwZ1xOrRNgY0X2F/7LNraUILIF0DG5uOMoDcZSEIdgunek1nZ0gL8HNjy9S9cDKEkIBdh+h8d2qhSXl7GVZ96LyXF7XkOzfFWfvXHx6mvb8pbsbojZ+KOOry9NFAcgl3rCXasBMR0qwiFRfc8muvR9hkDSahnY+pLM3kY0yaEW77yMfDC44FF7L2Dw6FDoJz2rrmcfXp26vK/XlrOy6+uzj8PMAAKoSjulBORaDFtavVaCSpfBq9VgI/jJWcQ9Lh91CHLQBFqGfAxsnscVWHK1eq1+hFwfYBzgTm5HuxBQ5Wi4hifvPh0SksK2w7X1jXx4EPP4yfy0AMMxgs8dBLOqNkZ4Roh2LmWoGYLiDMJOI+yWrR6YKxVB4pQj8V0C8zkL8AL5iwoBO5w4CL6myc8UI47+jCOnT8j6/A/n36NzVur89SqAm4Ed+KxECkivVbVlnqCbW+BqgAXUDdoLDIw1qoDQagOpvYys750N/A7IKm7/2HuA+V4TBF1/0KVskHFnPfeEwiF2r+DNlZW8cIrqzoXcucLqdiqM2RcRihJCXYsR1sbAJkBLERB6/q/Vc3Tq3RQGQac0uHYC8Ar5gwICA7wXkxn+P6HwqknH8G40e2pyq2JJE8++zpeolcb8h8YkUKcETPbv0zEIajfgdZvB5EI8H5EYyT7/1p1IAj1MFJx0hSKSXAwmQC+gjIWE0/tnwQB48cM7zT9fXHZKnbvqc9P7y8AgjN8qnEqpa1qMk6wu60R2jEgEw/VcHdPGAhCPZzsXkZVwHNdPGfifr/iIUi4IMKx82fgZKxJK7fsZPW6rfm7TlVFSiqQonLavL8aoLvWg58EUwQ/HwXd849cj7ZX6e9CdYC5HY6txXSdR/XJ9LGj6buu9znj6LnTKC1un93X1TWxcvXmPLaoikRiyJDMdGwhqN+OttSBSAg4GtTp+UYfhxb9XajFmNzeTFZg6k1hTwuIFNAfnUgdUWX0qKGMHjW07VCgyqq1W9B8TNRP44RwykZmrFNBm2vReD2pKe8ckEL6ufO3vwt1KJ2LvdeQ3gZCFZShtPdI6r+oMmxIKePHZJ+OtRu305qv8dQUUjIcQlHaUgr9pKldNYzB7AnUr+nvQh2M6SyYyfbsX3Uo+dRepbdQKIhFGTc2u/59y9ZqEolkfk9/C4cg4YL2lMLAQ5tr0k8oRxjT3/1J/V2oZUBpxu9xTAw1k9HkQ9OvvkDICtEANDTGaWhszvXI9k60CMIZl0gDaKlP/1ZCqvtGfy4q7+9CLSa7724rnTcFrqC/5PbuCxGGlpciGdazpTVBfUM8fy2qAk4ou6BcFU3E0yEbFxhuHsrTz3AQ6O9CLSH76iUxFTOZDKK/pQ3uhdLiQpwMUSaTflsztHxFHAdCHZzyfsLsLGcYgvh739fqEKe/C7WjpfSBjp6TYvrzV3EWQjQazvq0QRCYPVnz+gw44GZ8lwpma0dti8kUUb4gL7tWHMQz0K/paq/CjrfkgLGmwCF6M3cx5uz9V0Osf6Lr5/UT+rtQG8m+eiE6b0fYf69uJ5R4ayJLq67rEA65+X0WVMHPmAgp4EagvdOiz7p1uR5lr9LfhVpP9lS3ADPVzSTPXZ4HEYW6+uasTaXC4RAFBZEDeNE+GLb6kMxwLYhAuACkbTLUzPwjyfP5+wHR34XaSLYQY2SHawDq6HqK3A9RdlbXZgm1oCBiisrzdUosgO+hiSbahCiCRIoyn1VvHElWqIcq9amfNC6dm2nvorODqX8SKJVbq7MODSotorgon8PIYupPk/GMQ26qTQtgJsI7Ucl0LvU7+rtQdwM1HY5NJvurdwupnr79GhGamlqo3Lwz6/C4McNNS9F8tagATXvQZGv7VXNcpGhI+tFmTCdJZPg5uR5pr9HfhVoLdGyrPgPT3zfNTqB6f1/wkEWEnbvr2LQlW6hTJo4kGsnvfI+goQr8VoxSFQlFkcI2oe6h8zXud/R3oSaA5R2OTcEkcqfZhdlqsX8jsGlzFVt3tGdQhkMuM6ePg1AeR6j8JFq7td3iqyLFwyBWlj62C2RHf16fQv8XKsAysp1FY0iXvgkQaAPwdq4H2Re8+MoqmpravaeDyoqZMTXfdnjLRNBEE0HN5uyjpSNSziQFeB20Lr/jSwfOQBDqG2RPjQpI9feV8rPT3Q1epj87lESIN7Xw7/+szDo8afwIJo0fAUGe3uQiaN12aNrTnossLk75BHBcMOr8Dyoebv91JMHAEOp64K0Ox95Ndg3jq3Qqf+tHOMK6Ddv5z6ursw4fPW8ag8qK89eiakBQtRJNNNO2Po0WZXZ82AW8jCgy+L25Hm2vMhCEGgce73DsMNItWkzx+FqMVe2fqLLkyVfYsXNP26FYQZR3n3wkTjh0AC/cmwja2pjaxiJjfTp4DE7piHQo5lVEVvbz5SkwMIQK8CTZFrMY+BAQkmHngNAKPEp/THwQYdeuOv788L8IMqa406eM5pijpudv7FGEoHotQe3WrHahzshZEImB6dLxCOrXD4TbuP9/QsNyOncePANjWdP8k1TTs36FIzz53Bu8+kb2R3vPu+czsmJI/q5Pk3H89f8GL+X8UkUKB+OOmJl+RiXCY+Ag5e/J9Wh7nYEi1BbgT2TXok7AbFTsLvzAl0HCG4C/5nqgBxURamsa+MXvltIcb8/pGDF8MOeecxy4eXr5xSGoWk1QtTKjk7/iVMxASkek19R/J5CV/bkGNZM8vVK9whOYUE0mFwNHPvX8GxAkFbOz25ZcD/SgIcJDS1/i6effzDp81mlHc+TsyeDn47RXINGEt+7ZjLRBhUgR7vj54IYBdgC/Q9SXYWflesB9wkASajXwa0yXhzRjgauB2MVX3Aq++wbwx1wP9KDgCFu3VnP7vX/PsqbDysv45MWnEY3lacWMgL/lNYIdK9qtqSruiBk4w6akrelfUJb189BpFgNJqAAPAv/qcOwC4H1/+PPTeJrwgV9iWooe0viez52//AcvLcsOyZz//hPN1hb5aE1F0PodeCv/CV76y0WRaDHulJNTDc50I3APQkKGnZ3rEfcZA02o1ZgdxjMbnJUAXwamT1uwCOItbwGLMemHhyauw2NPvcrdv3qEIGOz3wljK7j84+8hEs1HayqQbMVbvgSt3ZJlTZ0xR+IMnwoa+MC90PwqTv/NT+mKPE7y7DU2YipoMrvjjwSG1tY1PREpLGg56bjZqzHJ+zPfwevnFsdh7fqtXPfln5t9ZVKEwyFuuO4CznvvCXkbdvTXPWesqfqYlviKlI4gPO98pHAwwNPA1yDcKOX9O8GhIwPNooKxprfSOb/3POBLN37nV9F//2dFLfA9DrVwjSPU1DRwy/d/y4uvrMp66Ix3zeWyj51pOvrlGyIEO5bjvf0IeAnSWUiEIoQOOwMZNBZUtwHfQXVH3u7p2osMvE9seBv4Dqa7Q5owcC1w2fFnfcGRoWe/DNzc4Tn5S6re9Ds//D2/f/DprIcmjh/BjV+4mPIhZfmXLigOwa4NJJc9YLrft7UyFdwJC3DHLwBTc/o9AudJRAZE3LQjA1WoYOKqPyc7G6kYuAkTtnEoiv0B+CH5vl4VIR5v5QeLH+CO/30Iz2v/SKUlhXz9ixdz3NEzIMgzB5IIQU0l3it/MKVsaZGq4lRMJzT7HAhHPdC7ELkPJwhk6MBxIGUykIWaAH4APNDh+DCMOD8hsYUB0dCPgXvI1/RCx6Guvombv/9bbl38APGW9u+USCTE5676IB85fyF5V68pQrB7E95L9xPs2pAh0gAZNIrQkechRUMDVH+L8B1UmweqSCHvrl5OmATcCyzscHwP8F3g59r8RJTmlu8BnyJ7i4zc4jps37aLm279Lb/8/WMkMrZPdByHSz9yOj+45XLKSovyaMpr1p/B9uUkX/sTWrMly5JK0WDCR38UZ/ScANXfA18EdgxkkYIVappZwJ3AiR2Ot2Diqv+t+lIje3bfhOoV5HrTYxEQePX1tXz1279i6ZPLssIwjiNc9MFT+PF3rqSiYvBqfN8nO685R+N2INmCv/FFvLcfRptqskUaKyM070Lc8fOTwG9Av4pIFYEiw/pvP6T9YSBPfTN5G7gCk5ifaXoKgE8DfxBZcNQjL6z7BqHQzRhrmxtch+bmFn7526V8eNH3ePTxl7NE6roOl5y/kB9963Iqos27/E2vfJlw7CKQjp+tD5G2IvDkK38guez/dRBpgBQOJjTvAtzx8xtBfoTyeZAqWqIDXqRgLWpHJmGmu+fROca8C/jV2NHD7t709v2zJQhuIdBZfTYyx8H3fV57Yx233fVX/vzw8zQ2Ze93VRAN86mPnMktN1xCefNaEq//1dP6qn8R+D+MnP5fK52RMz9H4H+CvtxmUhxINOFXLsNb9Thal47tZoi0dAThuefjjD68EuTbiN6PEh/o091MrFA7MxS4EbgcKOrwmGKs771/vPfLqy/80LsWAWcTBL0zFRbAcQj8gDVrt/DL3/+T3z3wZKfevADlQ0r54jUf4pqLT6Bw+0sk1zwDiea01apHg4elpOI3kfd8dapEiq5CdXrvbX9mLCjJFoKqlXhrnyGoWmVipG3hF7N7uDN8KqEjzk06w6Y8AXwL0X+jBFJuRZqJFWrXFGBK4G7ElMN1JAm8Om7MsCfu/OG1Be8++cgzIgWRaSgh0zHiAGaYIm03c3NTnLdWbOTBh/7Fgw/9i7UbtmV1uTdPF46YPYmvXH9B/blnLXhUXvpFkb/l9dNBI50vr1YDS9yJx60IHX7uAikcdAriDDLjPcBZcXrTJg3QljqCqlUEla/gV61KfWFkrLJUIRTFHX80oZlnrpOykXei+gtEd8uQgVEN01OsULvHAY4CvoYpMu/KavrAppnTx23/9CfOGnrmqUeNGjNqaHFhUUzEddJtXgDtWgeS+pdgwhWeT1NjMxsrd/LMv99kyRPLeGnZKnbuqu1S+2WlRZx79nENV196znMLjp19N4VDlrT86MwCYoWXYpI3xtMVGtQTKljvjjki6U48bqwMHjtUIoWhVAlZ+klZ/8kec9b/mJaeiSa0divB9uVGpPXbUhbU6fCagpSN1NDkE7c5E455QIqG3oNftxyJqAyxa9HusELdN4OAC4HPYLzDXTrgRKS1YtggnTNzYujouVNDM6ePY+K4EYyoGEysIEIkEibkOogIqkrS80kkPFpaE+yo2sPqddt4c8UGlr2+jtXrtrKzuhbP7zp0GwmHmDxxZPWHzjn+qSsue99vxs2a+wxNy+oomkfL7e8BRx1852jgeuCs1GfojAYBoUirFA8POUPGh2TQaHFKhiNF5RApBCdkutKLA6ix5oEPQRJam9Hm3QT1O9HaLQS1W9Cm3ZCIA0qXaX6RwoQzZPwKd8pJD7kTjnmQsrFv0tqYlNj8XF/jvMcKdf+ZAnwMk7U0mX14zCOREIWxAooKo5SVFlFWWkSsIILjOPh+QHNzC3UNzdQ3NNMcb6GpqYWkt/ecChHxY7HI2pnTxv394x8+7U+Lrlz0+uN//3n8vR+9B5HsS5m4Yxy+UkjAqRiP9kI672RnSPdNEgdCEcSNQLgACRdCOJpuzWk2a/JaIdEEXgL1Eqmdv9N/381GTeLUS0HJv53hU//oTj/zMWfaFdtQPxAnf0LS+Y4Vas9wMII9D9McbTZ9E1NtAF4Kh0MPVgwb9I+vfO7iys1btgXfu+1Pe/2j+OJx6fyCEoGT1XzJLMRUC3Vz7TOnvN2tW6V92t49AbAJ5FGJxv4sQya8EDnvkQb/rR8RmvOFPjhl/Qsr1HeGYPoCnwS8FzgeGEf2njYHSjOmgP1p4GHgBaA+FHLwvJ7n7MYXjweIgB4GnImZEs/BTIsPVrmjj9mY6xXgHyD/VGStCl7RZzYexFMz8LBCPXBCGJHOBo7FOKCmYsI8UUxVzt7Oc4DJO27BbFi1GngNeAbTOLwq9ZyDQvwnE2BwM9QVDEKYkhrvMRjRjsNMj6PsW7zJ1LgbMTW+K4AXBF4MYG2swGtsaIpQ+tmNfXEN+j1WqAefEkxi/yiM13UUUJ46HsNMn9M3eA0my2kHUIkR5S76cBf0+E/G44d811EpF5XhCGNT4x4ODAYKMcLV1LjqUuPeCWxG2YawG5zdQBC7dmNuz34/xQq1b3FJbU3FQbSSvYH+vyhNWycSKmwUTYZdVAgR8hXVyLWHfEspi8VisVgsFovFYrFYLBaLxWKxWCwWi2Vv2DjqgRPG5PuWYbKRBmGSG0pTx0qASOo5mVnoLZhm4A1ALe3JDzWYrTfimMSIg9Y+Jbl4FM2tZRREGp1AJIxKIaJDgCEdxluc+inAJGmk75MgNeZGoD5jzLXAboU9IppAHQ+U2LWVub42/QYr1J4RxYhxEiY5f2LGfwfTfpPHMALeXxQj3EbaM5Y2A6swqXlrgPUYUbTuzwvW/mAWsWgdQRB2xQlKFB2VGudUTPXPBEzW1KDUmAtT4+5J3q+HEW4TRrhVmHTC5amxrxF0KyqNgF9wnRXuO8UKde+EMOmAs4CjgbnA4Zj0ulL6Zu8eH5O2tx0jgGXAfzB5wLvI6DfcdNskEl4hBeH64lQe73xgHmafnQkYi1nUo3d/58QxXywbMbnLLyP8B5UNIqFm1aS1uD3ACrUzLjAGOAF4FyZhfSLG6uTD+VKM1V0DPI/pnPjS2h+Pa55cLNMTLXpqAKdgBFpO/vQhTmLyg5dhCg4eR2R1QcRv2lUfZtgXN+R6fHlNPtx4+cIgTCXJB4DTMNPDnu5PmK6EacRYlBbMVNXD3Kjp/F7BTI3T69sC2qfNDj27Ls3AilOnF9R98fTSOUdPiJaXxcQJ9r91k2KscrzDuJOpn8xqdjc15ijt69ey1HnqSevZACPal4CHgMcDx9mIalD0mU09POUDAytUM439IKaoei5mSrsvPMy0bhuwBbN+rMSsK3dj1mvNtN/0HkbAAe3nPIK56WOpn1KMBRxH+7p3bOr3QezDMjoCZTGHYyZGOX9eIacfVsCIUjMzD4xgFYijug2R7ahWIrIhNeYdqc/TiFlvtoAkUJIoXmrMqg4hgTBoFCGGUoRZmw+nfd0+DlN9MxIj5n0J2Eudv4eAB1BdRhC0UlpK7NIVfXcX5DkDWaijgfOBS4Aj2bv19DCe2JXA6+VlBW99+v0zed/x42eXl8UeqqxveHxiaSmTL/ntwRxfGOONHY3Zq/UozHR2Bsah1a1wIyHhiDFhLpxXxDlzYpWTh4Wechx5LSgbsjM0cfI0KSmO4jo/AXY4M//3gAeqi8cR9wVREUJBEVCBWRPPwaztj8CIt4i933PVwKPA/Yg+5wbanHQdiq6xa9mBKNRBwLnAlZibv7sbPoGxNs8DTwEvXHvenPpbrzpmtus4lwSqCzVgjKquUPTqWDj0dF08yZCzD/zG7wbBWN3xwALg3SIc5whj/aBrqxVyoCzmVBYURu/8y73v8+cfPuz9BDqPQCPAL1BuQHSPTL3zoA/2xa8dxtwRjSR8CbsOFZgvmFMwrWBmYabM3d1/tRjB/hzVlxy0JXrdlt46r4cEA0moLqYDw5cw7T+76xZfhRHnPzAC3aQrvl7gVe18dzIZfCpQfRfmJstkBXBVPNr4dGljOdFzbs96MP7TcaASwdGhqTPek9iogxInHtpDOCD2uY3p49HSAmfi7FGhT9Un5ILNNTq+rinRpWBdV/z5s4fLNR+b7Xzg3RMoLY1CoB5wHypfAa2RaT/P+puWn47jsmvh3p9RhlBMz+pnU58y2I3jtBZUV9IyeAyKiDgMBjkcOEcikUs06Y0i8DMac2exC/gz6O3JQN50RYOi6za/w8t/aDNQhDoM04nvakzssCOKCSP8FfgD8IYuXRTXslhpS33LGYHqZZj+SHsLbawAri4qiD5V3xyn7D3tltUIlVIcvgycw/4L1cFYl28R9R+jKZwpVLb/34eIlQRldbWRW9/e3Hj5Q89vch55sZKNOxq6dCQVFoQ47YQxfP7SIzhx/khc10miei/KjajUUFCHjDfT95afjiNwQJSjgW+lztv+itVBeArVmxFnd8GuTchNqRO99Yvo1i1IWdmx2tLyi2DP7hn+ju0ENTXgJbsT7EbgPoH71JHtjhcQvX5gCXYgCHUBZufw0+h6mrsR+B1wP7B6yQ/f658yb3SBl/TfhWli/S5MMsD+sAK4KhZ2n25KeJSeeR8A8Z+OAccBdBIqd2Cai+0PDcA3BH4O2lpwbfvN2fjYZYAWoc4NIvJFR4gl/YA1m+v4y3MbeODJ9azaXEsQdFZsxdAYV1w0kysvmcWoEcUegd6DciOiNZnT4NQXjINwCcIPMGvP/eF54CoCeVNCAQXXmHHrmqvSjx8N3AEyHwGSSYKaPfhbtxLsrkYTia4E6wMvgH5XhMcQTRRcM3Cmw/1ZqGFMW89vYbyRHakB/ojZdfyt6847PPjB5Sc4CUnORvgMcAHdNa7eOyuAq5Ou91TEC1N05j1tD8QXjwPVyYj8FNMFcG/nvxb4OiJ3AclYRtiiaellIBSpyleBz5PRstRxTIPvjdsbePCZDfz60VWs3VrXycK6jnD8vBF87ZqjOPX4MV4o5NxHoF8F9sjU9mlwSqyCw4eBHwEj9vH5nwWuUpW3HdcnLaYMkS7AbHE5N+uvRMDzCGpr8DdX4u+qhmSXFrYGuBuRn4Y93dYaZkA4m/qrUEsx1vALmPBBJh4m4P4jTLJAa+Njl6NKuaAfxXTEn9KTN+uC5cBVgeM94/rtYm1aPBZXBEUnoLIY02q0K2qArwN3A8nMDJ7Gxy4DpRDaRNrlWtsx78Oqylp+9cgq/vD4Wqpq4p2eN7w8xvWfOJyrPjLLGzw4dh+e3ojDbplyR9tz2iyrEesP6V6szwFXo/KmhDwKrjY7t+mqayDkQeDMx4j0qG7PXFqwu3fhbdpIsGc3BEFHwQbAs4h8w49EnnM8Lyi8un8nTPRHoQ4DvgksonOf3WrgZ5ibZWfjkkXpG/A44KuY6XFPkxy6YwVwVUuk+enSxiFE3vszAJp/NhYJBEQng/wEs2bNvA5GpKp3I5It0qWLcFSKA9Ebgc+yH82/HUfwvIDn39rBbf/3Jk+8soVEh77A4ZDDh86YxM3XH+1NnzrkfxG9EWWXTOpSrBdhxDqyw1s9C1yJyvJQLE748p0A6OqrwQlA5RjgdvYm0kxE0NZW/K1b8Cs3os3Nna2ryBYc53tOQcEvCYKm6KJVB+nS5R/9TahFwI+By+gcaH8ZuAlYCiQbly4CZRDCpzA3/bheGM8K4OrWWMNThY2DiZ1l1n/1i0cTJUSAjgNuw4SLwIj0RhXuQfEKM0Ta8NgiQAtF5WsYS9qjZt+uI+yqa+G3j63hzr+8zcYdDZ2eM3/2cL73pWP9hSeM/oUTdb6Mx27KdiFD/gjsVazPAFehsjx2XfsUXddeCb4LTrAAs8SY905OYlBXh79hHf7OKvA7eIhF4hIK/UZKy24JqnZsjX1uWy9cxtzT34R6PPA3TIZPGg/4C2YLxdXXfHA237/8JDSUnAV8AyOSg2VFu8JY1sLGpwsbyyh8z11tD8QXjwMTF12cGvuNgXCfqHqFGY6jhscuA4iJypeB/+IdbqNh9qdRXl5ZzXfvX8Y/X96K52db1/GjSvj29Qv8C9435VfRwdEvkwyqAWScmRHEfzoOAhxcLsIsH9ZgHEdvd3IcOQEETspxxDvfCUoEkkm8LZX4Gzeg8XhHsQYSjT7jVIz4avh9T7/A6itVpt/1jt8uH+lvQj0Ck4o2JvV7C+ab/DvA7rrHrgDBcYPgLMzO4nP6aFyvg5wHuq74jHuzHogvHoupdJE5gerDQKIoQ6T1S67AFR9FrgB+wkHYLdx1hOraOLf/+W3u+utyahuzK+fKywr4yuVzg0svOOzWwQvu+yqrr0GmdzENFt6PsE59500n7LeJFNqcR2MwDrvjD9aJDGr24K1eRVCzp9NjUlS00R1W8dXQqac+oJs2JZ2Z9x2st805PUmkPhRYDvwAWJv6+QbGKbO7Ycki3CAocoPgOuBe+k6kABWKdpMBJaDSjNKojiQzRQoQ8gPUWI+hHASRAviBUl4W46sfncfiz57IlDHZ+Ru761q46Y6Xna9874UPvXjf+Scy7XbR6q+3PR67rhIcAoQmRWpxgyyRtn0uxCV7dnPAOEPKCR9xJO6YcSbkleHO1qamCX7Vjtu9Z5/5phQWDw7+cz6q9x7Au+UP/U2oSYzDYiFwKma92tS49DJEdBjCfwP/zb5DDAebjaLs6jLNwRwbD5wTFnG8OydmPVx49r3p56zEJPkfFFSVkCucd8ok7vrSKSw4bHjW443NSX79j9XT7/zTW7947ZcXfZChRzi67HrATNnVfHucKOicLqdljoCwE1O0cPBQRWKFhA+bSWjKNCQSyRZrvHmwv3XLDf66NT+VoSPH8eazB/Xtc0V/EyqYNekWYHPto5d5zUsvB5VxIIuBazhIVqmHrAlE67SrO9ocmwYcrT6DvWS3yT/rMZUtBw0FAlWOn1XB3V86hXOOG4/jtA8y3urxxyfWTbn9T2/eseYPf7qMESVhfc7EQ0Uowkxpp6NK6x0TOry4D06yBXj7oJ9NVXBdQhMnETpsJhKLdbSsIW/Tho/4lZvupKR0uq664qAPoa/pj0IFoHHp5YQcCNDJCHcAF9E3HRm6YrUDXqj7/ImZwFRFR2r32YVVmHK0g44fKNPHDeK260/gooWTcTuI9XePram4528r/mfHS5uvY1AsKrEyQMsx8eaZ4LqB38W4/ZBiWrL0DiK4o8YQnjUHKSpqF6sI2tgo3oZ1ZwXbt91JJDpLV30aXXvVgb1fDum3QhUURGZgYqbn5HAorcDbIMTO+EHWAy0/HYcoBcBhmDXo5G5fRanFrLt7BT9QRg0t4tarjuNTZ88g5LbfGs2tHnf+dXnZr5es+mb9lrrropd+NwQ6OTXmORAUdUx9kiltqYgHfSbQEWf4cMKzDkeKi7PFWl+Pt2b1u4Jd1fcSDs9FJTND6pDiUBPqcOCTmLjn4d09qXHpIhQmoyzGJDHkkkag67QZAYRhGMskdOPgcpOCusSBXm1/EATK0LICvvmp+Xz0zGlZlrWhOcEPfv96yR+fWPuN5if+/mmc0OGYjhQjVRit3ccPNmGK0nsPBWfoUMIzZyNF2WIN6mrx1q45VhsafkbImYW46Lore3U4vcGhJNShmCD7vRgn0S+B6R2f1Lh0ERjLdDu5FynAVkzbkU6o+RlLe0XPTBEn3PKz8VnPi51zD2KWrqvo5e0aA1XKSwu4+VPzuXDh5FTs1VBdG+fbv1pW/PjLm7/llE9ML/yGCUwSoPkHk7p6ye300pQ9+2QqztBhhGfOQgoLs8W6qxpv/drjNR6/HWEagK78TK8P6WByqAi1CBNmuZj2dWa6M2AbDUsXoaIjgP9h/ytUeptKEdkj0q3JmY2xTABTlWBId+tUNeGnXt/kOFBl2OAYtyxawPuOz/7SqKxq4JZfvjx4RUPJYTJoFBjn3EwVRSJe5xcTbcYkRfQ+KbGGZsxEogVZDiZ/6xb8TRtPwfN+iLpjcPN6e9pOHApCdTHdGC4n2xnUhMndNb8sXYSjlIrKLbSn5OUDawLxWwoairMONv9sAgWJejBfOOnPNR5lZHdhHFG2YXoy9TpBoIwZVsR3rjiG42dnR7NeXrmTm37zBtWRsUjxUFA9wgnUFbfDl5ECSAJY3RdjTuNWjCA0ZSqEMkLXqnibNuLv3HEO6H8jWn4orVcPBaG+D7iB7LBKEpNx9DQYD68iERU+C3yC/Mm4CoAVEji4H/px1gOiSkukrBTjSEpTivEAd4EAspuDHZfcC36gTBldyncuX8CkUdk93/7+/EbuXbIRr3wqFA6Zhtdaht/Bol71RjoGvBZzzfoMd8xYQuMnZKcaJhJ4a1ZLUF93CSL/hTpRXXN1Xw7rHZPvQp0N3IKpiEmjwO8xGUgt8aWfxg2SgJ4HfI7ezdvtKS1066lVMkIcaSLAbFwl/pPsKWeAoEgNsK4vP4AfKAtmDufGj8+jrKj91Pq+ctdf3uaplQ3IiOnj/RGHTfaHTMj6W3n8+fT/rsd0Zuw7HAd34mTcipEdwjYN+GvXuCQSV+Lox3BbRNfmv3Mpn4U6CLMu7egJfTx1vAbAxydwQkdhStsG5XrQHdiJaSnaHVMxTrJMZuJRiJM9/y09825EAqUXQzR747xTJnHVubOywjY79jTzg9+/xram8HBn2NSPBRWzChqMM68jlaSuV18ikQihqVOR0rIssfrVO/G3bilF9Ub86Ikg6Or8ngbnq1AFE4Y5t8PxlcBXMBeehscuR0WGqWm1Mr0nb9BHbKMLj6f38wmouXFmYhpvZzIdkUFdTt7bUwl9+hBViIRcrv7gbM5YMDbrsefe2MEvH1lFMuCTQnARThWNSzpZqHq6C1H18sCluITQlKkm1TCN7+Nt3EhQVzsBkVtQRufNYqkb8lWox2BipZnT2BpMPenLAE1LLsf1xRXVq4D35HrA3bBB1GkIJ7Nn40kvwBFx6Xo9mu6J2zXKBkyblj4lUGXYoAK+dPERjB3e7hjz/IC7/7acF96uKnFFviJBxVwkc62qEASN5GgmgCru8ArcsRnlxiJocxP+xg3geScj8llUIro6f9er+SjUEuCLmET1NAEmw+hBgIYnLzUHneBdmM6CuUoN3BcrVfwgGU5kHxVQoYSuExzKMJ5ggv+d1OnvELbQhw6lTPxAWTBjONedP4dIOHsKfNsDb1Lb2DrdEfkvoKQxPQWeeic4jtLHnt8sHAd33AScwUOyp8A7q/B3VjnA5YielQ5W5yP5KNRzgbM7HHsG00IlCSBJBxUdhimi3t/OeH2ND6wEQTqeZZPpMAqT7NARB5glTkham7JnuBKAKLsxjcFzg8Alp01l4dzRWYcff3kLf3t+EwgfAM7XkEPTkssyZ5Rr6IMYcJeoIrEYoUmTs6fAnodfuQltaSlD5Esgo/I1ZJNvQh2FiZlmhmJ2Yzy828AkNRSFmgA+iilny1f2gFaCUnRae03k7rtT6bzCVMyWFV0xS9Ur6tj+N3CglliS3kx03weqMKQ0ymfOm8PQsvZGEy0Jn7v/tpxt1U0xR+Sz4ulUFYe6x9ucS+sx7U9zNnBn6FCcEaOys5Zqa/C3bwP0OODTOIGbj17gfBPqeZh2kpn8AXgMaPuGbvKK5gBX0bPNgvuaatTZgmaf4lirhxCAMpPuS+4mowzveFBwKZNmgDc4iDuR9xQ/UE46fCQXLMyuIXh97S7+8txGgMNBrwUn7Pptq5I+jQF3ieMSGj8+Ox84CPC3bkabmx1EFhE4x6L551nKJ6GOAy4lu0n2ekzLzER6tCIawdSVTs31gPfBZkT3IB2qSlAUCWPaxnTHsK4+X/EZd5HK5aikr+OSHYiGHT551nQmjGx3Wnu+cv/S1WyubsQR+TD4J6A+qcrXWnLh+c0k5QV2x6W6Q4BxLDU04G/dAqqjgGtQCvNtCpxPQv0g2RUxCvwaYz3MARVU5TiM5c13VorQ2umoAiqD2Hs4qRiYjkD8ti6bI27G7MuSM/xAmTVxCJecNjUr+efN9bv5m7Gqw4CrBSmOb/SAUIJceX6zENwRo3BKStqtqir+9m3plqTvRTgdFXTdp3M92DbyRagjgI90GM9KoG0fw5QXsRCzh8zQnrx4jlipinZyJBnPbXr/0L0xh0DdjokPYv7ptSLynuA4woffPYVpYwe1HfN95YEn17GzJo4jcqaKLjR6CMB0ZPTe0ZsdNBQpKMAdPSbbqjY14+/cAaolwOU4QWk+TYHzRajvprM1/SOdv4GPw2wFke80YKbtWY6k1p+1Wccp7PvLZjZIScebRVECk5qY827TQaBMGlXKhR3Xqut288wb2xChFLhMlRK/VcGEaHLj+c1EBKdiBFKcaVUDgu3b0NZWEE5B5VQ01UA8D8gHoRZiNhTObCi9Efi/9C9Nj12GiEaBj9F5i4p8pAaVjZ1EpuA5AZgc5n3FfscgjOmYMeMIqKpHHggVjFX94MkTmZixVm1J+PzpqQ00tXgInIrwLq8xgF5sJ9MjVJGCGO7IUe1J+yIEDQ0Ee3YBUgx8DJXCHPrsssgHoc7EWMpMlpARIE+tTY8kf2pM98U2RKs6OpIC9XF9CWOEui+Gk2rNkljcHrMsPP1eHFFA10IXa+A+JgiUqWPKeN8JE7KO/+utHbyxbjeOIyXAR5I1QQEOO8llDDgTEdyKiuwic98nqNpBqgroXQjH5EtqYT4I9QyykxYagD+TWss0LL2cpLgOxoHU120+3ymrQDpN8URcRGQYMHE/XiMCzFZRfO1gfFVAZSM5SCXsipDr8L7jJ1Be2h5Xra6N8/C/N+GbbR9PFZe5zZu8JvLCoYSxqoVFOOUZKxARgpoagsZGEBkCXITnhHTFNbkebc6FWoLZfzSTN4FX2n9VQvhj6ZytlM+sCVSTbtdndwztnfz3xWwQNwh13BwJs0FSjj2/aYJAOWJKOQtmZod+H39lK1U18fSX0/mFC0eCaR+aJ/NJB7diRFaBuba2EuxqO61n4AZT8qEbRK6FOonO+a7/JNXFoOkxk9UiyrsxvW8PBVpB1zoCsdO67NI+FZPPuz9MExjqBF3dKNpIymGVaxQoKQxzxtFjcTJiNSs31fLyip2keqSd2fjI1tEIq0jHxXONKlJa1ilUE6T3ZoUJCO8hFKDLvpDToeZaqEeTXRRei6k3BSC1WXYh8AHyOwspkwaQLnsEpW6FOex/EcEYlFGdwgQC/ikNfdeLaD9Q4PjZFYwob9+cvSXh8djLW9IbUU0Tl1NwpJKMFjq5RiIRnCEZu26kEiBS018BzsVzBlOcW2d1LoXqYtIFM2/aFZgGXrQ8tCgVcmQmpuztUGEHyraOk7uWxeNxkQJSlTH7yRC6mEloQQvuUyVghJr7eRmggTJ5dBnzpmVHnV5asZMde+I4ImFE3us3BrXsvZi+bxEx69Rwux3QZIKgtq3D6VyEI3PtVMqlUMvonEa3jNS6y4uAmGyBjs6mfGcdQn3nC6soOhwz3d9fQsDsjq9VctL9Zp2qrKGXm1vvLwoUFYQ4dd7orG0x1m+rZ82WunQU5NjWam8IfdxOZu8DV6SkFCezebcqwe7dae9vKXAmJbntApFLoU4mu0DaJ1UUDqAiBKrF5HeFTFesb/GkuaMjKdXDdxQwuoevN1uUaMviLlIJhU3kiec3zYLDhmd5fxvjSV5aXpWeYIxVnyMRVuR6nJlIJGJqVTPQxka0pSUdZz2ZBi3PpVXNpVCnk13mVQ/tF1BUEXQqfbs94oHiA6sKQtqdI2kWpkdxT5isMLQbN+keUm1p8oFAlQkjS5k6NttX9srqappakogQQjmFgPX0cTuZvSJihOq6bb9rawva1DZZmUG33SH7hlwKdSbZlTKb6HzTdXQ25TtxTI5yFsnbR+GZWOisDp95fxibqurIxlHU1XryxPMLZuY4qDjCvKnZ69RVlXXU1LcixiQd6zUHSfqoP/H+IsUlSEFBVvlbUF+X/n0wcAwi6Krc1KrmSqhhOpdxbSF18eqfuJQg5LuYbf1y7ZnuCV3WXHpBmJAERbyzBmzFiHSeVUQSiOd45NN6Dwi5wrxpw4iE2i9b1Z5mNmxvMLNIYbLXEJSRR55fk1IYRQqLso5pfX1mt/1j0aAAJzfz31yJoIjsnkhAe3xNPAfx3KH0zEOaD+xtQ6SyLj7z/hACZgS46E/bVwrFJ/+GVIriSvIlLom5r2dOGExZcXvLk4Z4ktWba9P72BQFrTqRXBeRd8RxTTw187PE42ii7dTOBmdornq750qoFXSe0rbl9qbCMqPZv1S7fGJjxNU6twuPL2gN8No7eM1G4EURhXiXG46vST0nL1CFiiGxrE6FQaCs3VKXjqeiAYehvbszXY8RQUpKs0vfWlsgkUg7lCpAp+QqqSpXQi3HuL3TJDC7nmVyOPufwZMvrEn4EsROz3Ykxa6tBLN+vRNTQdITlqqyhCBAbuhSqPtq8t2nBKoMLokyYUS2dVq/vYGWhG/skTIxSGgN+ZJKmEJiMSQznTCZRONtiQ6DSDk2c9H9IV+E2khqyljzxJWEfB/gSHrueMklSeg+7CAIIvICpgfU/rILuF2ExsLrunDuOgqO7iaPPL8AkbDLuA5CraxqJN7qpWeOY/xWbSWXzc66QKIFEApnOZS0OStMfQRITlrT5kqow8gWYQOpeGDI90iG3CKy92Q5FKhjLz2BCq7dBKqewD3svwPogUD1uW5Tj8JJ8EJx8iiVEIwWx1eUZOX97qlvoaYh5fkViv24OuRTDFgVwuHsdqKqBNnLjelALBfr1FwKNZNGzI2OmO0FB3HorU+3s69pbQDRpuBt4BfsO/VvA+idjkgi5HftKyo+5dfg+GDSLvMilTDNiPJC3IzFenOrx666lnSGUjRIaAmSB0XkGYjjQKTDHmOJBLQXRYwErcjFjD1XQu3YpaGFjBYdYoR8KKUNAmxxhF3uXr5sC66vpKXIAdO07dW9vFYA/CqcbH7DCTyin93n/bwKcw7zA4GKwbGsEE1Lq0dtY2t7IzRfh6JszPVQs3AcJBLNOqSJBPhtuRnltO8O37dDy8F7Cp13XWsmo1uBmtahhT14zXxgjeMWt3Z0JHX+8EqgzmbgLrrv0PAmyq+ToSKNXr9ffqLtGKdSfqCm7K00Y5vG1mRAfVOS9LRRlXL1Na8sKiLZU18Az0PbLWopKaHqmr5NfMiVUIs7HGskO6VsFPm1z+n+sMLz9+0bKbh2M474oPog8GwXT0kCdwUBG2Q/rk4qiaCKPIpLKhCLhiiKtVekeH5AYzzZblGV4eqxnTyKASMCkexqSvU8CPx0iMYBxuSiO2Gupr7RDr/HAU1XXYiZYuTrxk9dEQfW7u8FFEdRnN3AHXT2fD4rygOOCwWf2bczN1wUJ1KqDeLmU6YPRMMusWi20765JZnebhKEIUFSN5NHMWDAhGcyGp7he5lrVIAKUyjdt2LNlUXtKNRWQC8/5zA8J0APjU6Dmeykcxy4Wwqu2QKiKLIEeDjjoQbg5wrV+xuY0lAR4QWF6oSlLtcnoW1MQDjkZK1RwXQnDNr9MEV+XOvJk3YybTguWR3FA81MIwQYhtP3bt9cWdSO09pWQE+aOxJRx6Hz5r75zg6EbdKDy1d4bSWCNpOdBPEIwj8QiF21f6HRcJkDLFInKg25Lm5uRwm7nYXamvDbLSpEgoQqkuNtLjriONlC1aCjUAfh9L1uciVUv6vfy4oiOGZXpUOl7Uqa9QTapD0MkEgATqD/Av6ESVK/A2hOZTLt32u4AIfjRMXfnzVtX+E4klVAbgbb9i8AN0iSJNf70XSky2/brGOxXORT5SLzxwdewuwS7mCcJ68A/mHjBiOB4yDaiqlEyfH2B/uFA7ziRgLPS/TsdBZcX0l88bgkZiOs9RC80OHbe78QORV/+fQaCUmNBuqw70CfAAFKcj+euxfUSVUGZL2GKhTFQkwdWxZ5/s0dZYATCTnJ8RUltY4Q+IoAjeprM/A6ZkYhBzaWg4MUFomEI6Xa2lJgWooWNhIJN6WGFgJqcjGuXKXo3YmZ/h4FPEcqra5iSCGBknREvw0sztHY3gnbPd8h5PX8PlOzLeObwArBTcSu66GBUXjhopMQZ+fPxeFBcfdzlqSo+npgxdsaCOJ0+aFjUVfLiiKlwIeB6a7rPDZtbNljktpzEhMr3ozwBvA0uSpLyUTAKSpUYC5wISINiHO/xAoqCTRVTksjOUguyeXJcTH7gzbn4oNb+owQxnnYTB5YzH3hLZ6MiJDQZCGivt9U2Fp8w8oDf2GLxWKxWCwWi8VisVgsFovFYrFYLBaLxWKxWCwWi8VisVgsFovFYrFYLBaLxWKxWCwWi8VisVgsFovFYrFYLBaLxWKxWCwWi8VisVgsFovFYrFYLBaLxWKxWCwWi8VisVgsFovFYrFYLBaLxWKxWCwWi8VisVgsFovFYrFYLBaLxWKxWCyWfsP/B+M1rbuSSxQFAAAAJXRFWHRkYXRlOmNyZWF0ZQAyMDIyLTA3LTI4VDA4OjQ1OjU0KzA4OjAwujVCggAAACV0RVh0ZGF0ZTptb2RpZnkAMjAyMi0wNy0yOFQwODo0NTo1NCswODowMMto+j4AAAAgdEVYdHNvZnR3YXJlAGh0dHBzOi8vaW1hZ2VtYWdpY2sub3JnvM8dnQAAABh0RVh0VGh1bWI6OkRvY3VtZW50OjpQYWdlcwAxp/+7LwAAABh0RVh0VGh1bWI6OkltYWdlOjpIZWlnaHQANTEyj41TgQAAABd0RVh0VGh1bWI6OkltYWdlOjpXaWR0aAA1MTIcfAPcAAAAGXRFWHRUaHVtYjo6TWltZXR5cGUAaW1hZ2UvcG5nP7JWTgAAABd0RVh0VGh1bWI6Ok1UaW1lADE2NTg5NjkxNTTXn47pAAAAD3RFWHRUaHVtYjo6U2l6ZQAwQkKUoj7sAAAARnRFWHRUaHVtYjo6VVJJAGZpbGU6Ly8vYXBwL3RtcC9pbWFnZWxjL2ltZ3ZpZXcyXzlfMTY1ODg5NDgyNTc0MTM2ODNfNzhfWzBd6ZEm5wAAAABJRU5ErkJggg==;" vertex="1" parent="Mc-il4vVqWPl5HhSfTiv-28">
          <mxGeometry x="90" y="580" width="60" height="60" as="geometry" />
        </mxCell>
        <mxCell id="Mc-il4vVqWPl5HhSfTiv-123" value="" style="group" vertex="1" connectable="0" parent="Mc-il4vVqWPl5HhSfTiv-28">
          <mxGeometry x="510" y="572" width="56" height="45" as="geometry" />
        </mxCell>
        <mxCell id="Mc-il4vVqWPl5HhSfTiv-120" value="" style="ellipse;whiteSpace=wrap;html=1;aspect=fixed;labelBackgroundColor=#FFFFFF;strokeWidth=2;fontFamily=Times New Roman;fontSize=12;" vertex="1" parent="Mc-il4vVqWPl5HhSfTiv-123">
          <mxGeometry width="45" height="45" as="geometry" />
        </mxCell>
        <mxCell id="Mc-il4vVqWPl5HhSfTiv-119" value="" style="shape=image;verticalLabelPosition=bottom;labelBackgroundColor=default;verticalAlign=top;aspect=fixed;imageAspect=0;image=data:image/png,iVBORw0KGgoAAAANSUhEUgAAAMgAAADICAYAAACtWK6eAAAAAXNSR0IArs4c6QAAF+VJREFUeF7tnQuUFcWZx7/qOwzDY3jN7e47AyLKS3n42JXoUVDHja8cUTBqfGzQoGLMw0RXUBNXBg0akSg+eCoYNUY3GsMjLj4IDBGzuuYk7Ikv9CjR7Bmmu+8sLJqAzNz+9hTMZOHO7Xu7q+r2dPf96hxPToaqr77vX/W7X3d1dxUDKqQAKeCpACNtSAFSwFsBAoRmBylQRAEChKYHKUCAyM8BRKzZtWtXTUdHR59cLldTVVVV47puDSL2yTFWVa1pezo6tL2a1rG3vT21V9P27U2lUnt0Xd/LGOuQ94As9IQClEHyVLcsaySmUhPAdSdowCYg4AQANkFqcBAdxtg7iPgugPaO6/L/rXmnvr7WkbJLjcuuQEUD4jhOveu6JzJNOw0ATkEEDkKfsqve1UEXOAw2MsRmx3HeHD9+/L7Q+qeOSipQUYBks9mjcgCTmAuTEHAKABxXUqEQKyDiF4zBRnThd4zhm1VVVW/W1dXtDtEF6ipPgcQD0tbWNq49lzufgTYVAE+O0wxAxDaNaWsRYZ1h1K2je5nwRy+RgGSz2aE5xKmAeD4AOzd8WcvS40cMYJ3rsnWZTHpjWXogo90USBQgjuOc57pwOTCYCgD9EzzefwAGazWAFbqu70hwnD0eWiIA4WAgwCzE/WBUTGEMWhBgRVRA2dC8BQuJj4iNZzZOaY7jwMQakEoFI3+iRQUUAiQiPwEERuGB6AIl196+uKGhIRv2cBEgYSue15/jOGNzyOYwwJk97ErUu9/GABcYhrEqTEcJkDDVzuvLsqw5wLTZAJDuQTfi1TVja8DN3Wea5uthOE6AhKFy96xxvoswhz/p7oHuk9ElYwty7fvuK/dlFwES4nSxbTvjgjafLqeUib4NkM03zfRTMhY3bNpyBTD4noeNSYX+zgDeR4DP8v8NwX30zNNPfVTGn3K3jeQqlm3b5yJo9wLgxHILUGn2Ed0HTMOYI/pUvhOQn6nQDcGdRYAEVNK2s7ch4N0Bm1H1AAowBptyHR231NfXvxWg2f6qBEhQxRTV37lz54h97bkFAHixIpNkprgCu5DBnIyuB7rEIUB6YFpZVnY6gLsAGBvVA91XdpcIS01T/5ZfEQgQv0opquc4zjUuQqBfMUVdk5lOBRDgxYyhn+dHEALEj0qK6liWMxsYLFBkjszIKfC6aeiTS5nggCCDhkL1GBQeS2SwDBA+7t7G3UU36R6K77CsJo1pc0sNCP17iAoweNfU9fGiPdJzEFHl8toRHIqELI+ZHaahF8wQpbojQEop5OPfCQ4fIvVwFUTcmzGNwN/mEyCSA2fb9kwEtlLSDDUPR4HPTEMfEKQrAiSIWnl1Lcs6C5j2soQJahq+Ah+Yhj7Wb7cEiF+l8uq12PapKWCbBZtTsx5UgAE0G4be6MeFDc1bNhWqh4jz6ItCDwWz2eyknIv/6UdgqhNVBdhzppG+JKreldOvsr6s2Nr6PxOZlvslAIwuZxBkOwwFKhOSsgGyc+fOQfvac+sB8KQwho/6CEGBgK+lhOBR2bsoGyC2nX0cAa8qewTUQagKIINZQV9wDNVBxZ2VBZBW276VAbtHsa9kLhoK7HJzHWeJvCofDfeDeaEcEMuypgHTfhXMDaodJwX49yR6On2W6EdXsYpVpbMt2exRKRf4fccIlXbJVvQU4F8mZkzzpuh5ptYjpRnEsp31AHCOWhfJWmQVQDZD9hv3yMbW6ZgyQDq35bk36gGTf0oV2JbraJ9c7t1SlHoc0JgSQPiGbi7CFq89qxpnLQ3oVnmqXzl1Elw19YTyGI+p1W0ffgy5XK6b9/UZAwYPGlg6KsYWmHr6ltIV41lDCSCtdnZlse15CJDoTg4OyL729m4ODmvI+AOEt0R3clib04WtpDQgjuPwjd3WFHOcAAl7WP33pwQQxtaYenqa/17jU1MaEMt2+KVV0V0PCZDoTgglgAAAA7w67L2Aw1BVChC/N+YESBhDKdaHKkAAIJE37MKAtLS0pFNVvf4IAMNKDQ0BUkqhnvt3hYDwNNJk6vq8notGfc/CgFiWdTMw7T4/LnkBcsXVM/w0D1zntY2b4dPtn3RrV8mrWB//+S8FddyzZw+42P1gqN7V1VBVVVWwzZEjDiv4d34+CQM4oZzHwoX9zYkQIIhYZTvOHwEYP1e8ZCkGyPAjDi/ZPmiFp1c+SYDkifand7cFlbFg/X59+4IXIPsblDmLhP3VohAgra3ONUzzv9kbAaJkbkoZCQuQcmeRWABi2c5rAFByk7GuESVApOa2ksZhAVLuLBJ5QHbY9kUasOeCjBoBEkSt8tQNE5ByZpHIA2LbzjoE8LWPK2WQ8kx2EathAlLOLBJpQNra2sZ15Nx3gg4QZZCgiqmvbzmFD71ta9sJOdft1uGA2v5QU9O7oCOm7uuYyD+Yhv6PIpG8uum10wGA/9etMMY8tqtlP0V0uy9dAsCZjVOaRPw4sOYQoIh+KUiABBA55KpKn4Pk+Y4u+6dMJr0xaEgcEMZYwS2Egtrq3HIoHEAsO/s6AJ4c1EkCJKhi4dUvJyAMYJFh6DcGjSaWgFiWdTIwTeg4YQIk6BQJr345AQGAjww9fVTQT3NjCYhtZ+9BwFtFho4AEVEtnDZlBgQA2YWmmQ60R0EsAbGc7NuAKHR2BAESzmQX6aXcgDBgjxtGemYQ32IHiG3b5yAw/r25UCFAhGQLpdGHH/+5YD/pIYP9fzBVxFNEbPvr55+NHDly5P/6DagTEK/DlQqubgHAVgDYld8HIm4u+yqWZTkLgMFsvwHm1yNARJVLRjsG+BXDMIR/YA9WIZLPQVpt5/cMQGhNmwdHgCRjootGgYDzM4Zxu2j7SANi2/ZoBPaBTHAEiIx68W/LADYZhn6Gikgil0F22PZ3NGAPywRHgMioF/+2iLDvs927BowePfoL2WgiB4htO2sRYKpMYASIjHoJaauxM810eoNsNJEDpNWy/8oY6ysTGAEio14y2rro3lVvmnfIRhMpQHbscE7XUiD9TgwBIjst4t8+yFFuUYq26MuKrbY9kyk4lZYAidKQ95AviI5pGkYP9S7cbSlAfsSA/VDYemdDAkRWwWS0d3M1Rn19rROnaIoDYjk/Zwwukw2IAJFVMBnt3Rw01tfrzXGKphQgbzAGJ8oGRIDIKpiQ9si+bZrpJXGKpigglmXbwJguGxABIqtgQtojLjFN49txisYTEMdxal2E3SqCIUBUqBh/G3FcyfIExLKsY4Fp/A1J6UKASEuYDAMxXMnyBET2FfeDR5QAScb8VhGFoad7Bf3CUEW/ojaKXWJd6iI8I2qYAFGhXPJsMMBawzA+j0tkRS6xstcDQyUrDpRB4jIdyu+nm+sw6uvrY/MspMglVvY2BLxbhWQEiAoVk2Gjo10bPnRoXeGt5iMYYpEMIvcVIV1iRXC0I+ASAxxjGMaHEXDFlwvFAFkBDK71ZaVEJcogKlRMhg10U8dkMkP+FJdovAGx7ecA2EUqAiFAVKiYDBspjX0pnU6/FZdovAFxnFcB4csqAiFAVKiYDBs5wNMaDOO3cYnG+ybdcdYiyn1J2CUCARKX6RCCn+ieYprm70LoSUkXxVaxnkBAJYcIEiBKxioRRhjgPxiGwQ9/jUUpBsgiBPyeiigIEHkVt25rkTeiyMJxYxuELaU0Ni6dTr8nbCDkhsXuQeYCgvC28QfHQYDIj+qNC9fA1g96HpLjxjTAAzdfIBwQurkjM5nMdmEDITcslkFuQMAHVfhDgMirmBRANAYN5TwmWl7pQy14Z5Bs9uvg4pMqOiRA5FVMCiDVvaoGDx48uNseuvIKlcdCsZcVz3MR1qnolgCRVzEpgBh6ug9jbK+8IuFY8ASkNZs9kbn4hgo3CBB5FZMCiGnogY79k1dOzoKnszt2fKZrqb22nPkDrQkQeRWTAQi+bRrGRHk1wrNQ/Jt02+Gf3NbKukOAyCoI4AXI5DNOhSlnnCbfQZ6F1zZuhi0buz/wllnFYgDPGoYuvUuO8mCLGCwFCP/k9lhZhwgQWQWTAQgC3p4xjPnyaoRnoQQg9gsAbLqsOwSIrIIJAURj0zLp9Bp5NcKzUBwQx1kICP8i6w4BIqtgMgABdEeZpvmRvBrhWSixL1b2W8Bwsaw7BIisgokAZI9p6FKnBMirGNxCUUBsu+0cBFf6bDkCJPjA5LeI+006Y/CWoetfklciXAvFtx5tbe3HtJT0DhQEiPygJgCQRYau3yivRLgWSj60sW1nEwJ4Hb3ry1sCxJdMRSvFHRBAd7ppmqvllQjXQklArGx2Drh4r4xbBIiMegfaxh2QuL2k2DViJQFpbWs7ieXc/5AZYgJERr1EALLVNPTj5VUI30JJQLhLlu38NwAMFXWPABFV7v/bxTmDMGAPG0b6BnkVwrfgE5DsEyDx+S0BIj+wcQYENDbDTKefklchfAu+AHEc51oXYYWoewSIqHLJyCApjR2dTqffl1chfAu+ALEsayQwjQdYJeIiASKi2qFt4ppBGMBmw9ClVkHl1RO34AuQ/fchlv0CMLH3sggQ8QHqahlfQNh3DSP9iLwCPWPBNyA7bPsbGrBVIm4SICKqJSKD7NQYjI/TN+j5I+UbkN27d9f9bc/ebYyxuqDDTYAEVax7/VhmEIRHTVOfJR99z1nwDQh30bazqxDwG0HdJUCCKpYQQFLa2WZd3Svy0fechUCAWFZ2OjB8Iai7BEhQxRIACMKbpqmfJB95z1oIBAgiVtlOlq9mjQziNgESRK3CdWN3icVgtqnrC+Uj71kLgQDZf5mVzd6FLt4exG0CJIhaiQAk257Sjh9WV8ffwIh1CQ6IbY9CYHzz4f5+IydA/CrlXS9WGYTBQlPXZ8tH3fMWAgPSebP+MAJ+x6/7UQeEbwx940+i8an0phXXF5Q1RoB0oJs7PpPJvO13fkS5nhAgLY5zQgrB9ylBBIj/KRB3QBiDxwxdV3J0n3/VyldTCBDujuVknwLEf/bjGgHiR6UDdWIPCOAUwzC2+I842jXFAbGsLwPTXvUTHgHiR6X4A8KAPW8Y6Yv9Rxv9msKAdGaR1YBY8rAIAsT/RIhzBkEXpmYy+q/9Rxv9mnKAWNYpwLSS6ZQA8T8R4goIAluVMdJX+480HjWlAOnMIvcC4pxi4cYVEMYA7r+pZIIUGmmvVbOYApLVGEzWdX2bkBgRbiQNSEtLSzpV1YtnkbFeccYXEAYbl39T+fAVW1aOJSDo3mKa5gLlQkXAoDQgPAbbtmcisJVJA0TTGPxmGQFy8LgW2N39ddPQJ0dgLpfFBSWAlLphj2sGSWkMNhAgh0y8fEA0Bhfour62LLMzAkbVAVLkhj2ugFSlNHh16XXKhykpl1hJvTE/eMCVAcKNtrY632caPJA/o+IKSK8qDV5ZQoAUusRiAL/v6Gg/t6GhIav8FyRCBpUCcuBSy1kKCIdcuMcXkBS8skT9B3EJyCCfM8Bz85+Yj5s2rykKc9sFbH5/dVOzCl+UA7J9+/aafv36rz94P9+4AlLdKwUvLyZA8jPI/TddcG0moz+WPwHHTbsTVUxKWRsuuI2RBaRzVes4BMaPTcjw/x9XQHpXV8FLj6h/7y7OGeSwzKC/vLzshuGFJjEBEgDt1lbnUqbBM3EGpKa6CtYTIIeMOgI0v7f6jkYCJAAMXlV3WFaTxrS5cc0gNb17wfqHr1GgxKEm4pxBCBDF08GynOWN1y0teCF/xdUzYPgRhyvuEeDplU/Cp9s/6Wb3yqmT4KqpJ3T7u9eE7dO7F/w7AUIZRPkMzTPodW0adUD61lTDiw+pf/+u0jIIf7hYjrL1g5aCZiN/k+53dSPqgPTrUw2/fpAAOXg8RS6xFt18ARxbBki8Lt0JkBI/R6ousfr3qYZ1BIj0JdaDs6fBMaPrlScRAkRQUlWA1PbtDWsXzRT0wrtZpV1iPTRnGkwcRYB4zoi43oPU9usNax8gQGQvsR6eMx0mjNr/SExpoQwiKKeqDDKgXw2seSDwVsQlva60DPLILdNh/EgCJHEZZGD/Glh9PwEim0EW33ohjDvSLPnDEbQCZZCginXWV5VBBtX2gV/95CpBL+gepEuBJbddCEcfQYAkLoMQIL/tNqYiy7xLf/BVOGqEofyHhjKIoKSqMsjgAX3ghYWUQWQvsZb98CIYe7guOJrezQgQQUlVATJkYF/45X1XCnpBl1hdCiz/4UUwhgDxnhBxXeatG9gXnidADhlYkUusFbdfDKOHp5X/0FAGEZRUVQZJD+oHzy2YIegFZZAuBR7914th1GEESOJu0gkQNTfpj91xCYwcFvjs15I/TJRBSkpUuIKqDKIP7g+/uPfrgl5QBulSYOXcS+DIoQRI4jKIMaQ//NuPCRDZVaxVTV+DIxqGKP+hoQwiKKmqDGIOqYVnf+zrCJRAnlbaqyaPN10KIxoGB9LIT2UCxI9KBeooA6SuFp69hwCRzSA/nXcpHF5PgCTuEiuTroVn7iZAZAF54s7LYHhmkODPHT0oVC6cqgxSnx4AP7/7CuX+Vdol1pN3XQaHmQRI4jJIgz4Anp5PgMhmkKd+dDkMMwYq/6GhexBBSVVlkKH6QPjZ/MsFvVC0zMvYOwxh3fnfX3n27r99cXy+1clnnApTzjhNuY+vbdwMWzaqeQ7CNeRaqi4EiKCiXoCcNHH4i/d89yt7ALRGAPz7wrzXJQ//1eO/fqpL6Uss9gYDaO4Ad3ODYbzE+z962p2bGMDpcQSEX6byy1XVhQARVNQLEACc9+7quU2IqLU6ztkM2FmAcOZ/fdAyvtCRaMPMQfDUXZcJeiGWQTYsuebwhoaGT/NbxxkQvtDBFzxUFwJEUNFSgOSbvfzWxy7e+n7LL/L/zm8s+Q2m6lIsg7y7+o6CG4rHGRC+VG7WESCRv0nvyiD5jh41rel0DbRN+X/nS5N8iVJ1qTRA+NsI/K0E1YUyiKCiQTOIFyD84RZ/yKW6VBog/H02/l6b6kKACCpKgAgKd1AzlatY/JMB/ma06kKACCqqCpARDUPg8aavCXohdpOexHuQ5++bAXUDCZDE3YMcMXQIrJpLgBw8sCJfFPLPlvnny6oLZRBBRVVlEP4NA/+WQXWptHuQFxZeCYMHECCJyyD8Kzj+NZzqUmmA8L3F+BZKqgtlEEFFVWUQAkTNqyZ8d0q+S6XqQoAIKqoKEL7RAN9wQHWptAzC9zfm+xyrLgSIoKKqAOFb1fAta1SXSgOE75DPd8pXXQgQQUVVATJmuA7Lb79I0Ata5u1SYN2imdC/LwGSuJt0vhsg3xVQdam0DMKPsePH2akulEEEFVWVQcaOMGDZD74q6AVlkC4F+EGo/EBU1YUAEVRUFSB8R3K+M7nqUmkZhB+lzY/UVl0IEEFFVQHCz7TgZ1uoLpUGyPpHroWa6irVMgIBIiipKkD4qUj8dCTVpdIAeWnxtdC7FwGSuJv08Uea8AgBcsi4iryL9fLiWVDdK6X6d4YyiKiiqjIIP3iSH0CpulRaBnllySzoVUWAJC6D8KOL+RHGqkulAfLq0uugKqWplpEyiKiiqjLIxFH18NCcaaJueLarNEA2LLsOUhoBkrgMcszoenhwNgFy8MCK3IP8Zvk3QWMF96KQ+vGhVSxB+VRlkGPHNMCimy8Q9MK7WaVlkI3Lr4cy8JH8Syy+K2A5yqfbPwH+X/dyYF+s/L97bdpw3JgGOHbs0HK4CE+se6ugXZFPbsviIICynRWvnDqpLC56aeiC2/j+6qZmFZ2qz3sFvPI6xFNFAMFsBAMkmG01tYMCoqZX/1ZELrH8W1dTkwAR1pEAEZausyEBIqsgZRApBSmDSMm3vzFlEGENKYMIS0cZRFY67/Z0D+JfW8og/rXyqhm7DMI3XpYPW94CA9zstYrFQJsr34O8hfdW39FYyEpUNOS+Rd1HBHderFax5KcNWSAFekaBUJZ5eyY06pUUkFeAAJHXkCwkWAECJMGDS6HJK0CAyGtIFhKsAAGS4MGl0OQVYF7PKLzWksdNm9cEwCKxJCofPlmIogLle50l+INiAiSKM6TCfSJAKnwCUPjFFSBAaIaQAkUUIEBoepACBAjNAVJATIFIZRD+ualXGIVe+CpWX0wOakUKdFfA62VD2fkXdE7TcxCanaRAEQUIEJoepAABQnOAFBBTgDKImG7UqkIU+D91VfwP384vcAAAAABJRU5ErkJggg==;" vertex="1" parent="Mc-il4vVqWPl5HhSfTiv-123">
          <mxGeometry x="7" y="5.625" width="33.75" height="33.75" as="geometry" />
        </mxCell>
        <mxCell id="Mc-il4vVqWPl5HhSfTiv-122" value="" style="endArrow=none;html=1;rounded=0;fontFamily=Times New Roman;fontSize=12;strokeColor=#FF0000;strokeWidth=4;entryX=1;entryY=0;entryDx=0;entryDy=0;exitX=0;exitY=1;exitDx=0;exitDy=0;" edge="1" parent="Mc-il4vVqWPl5HhSfTiv-123" source="Mc-il4vVqWPl5HhSfTiv-119" target="Mc-il4vVqWPl5HhSfTiv-120">
          <mxGeometry width="50" height="50" relative="1" as="geometry">
            <mxPoint x="14.7" y="33.75" as="sourcePoint" />
            <mxPoint x="46.199999999999996" y="8.4375" as="targetPoint" />
          </mxGeometry>
        </mxCell>
        <mxCell id="Mc-il4vVqWPl5HhSfTiv-125" value="" style="endArrow=classic;html=1;strokeColor=#FF0000;strokeWidth=2;fontFamily=Times New Roman;fontSize=12;rounded=0;" edge="1" parent="Mc-il4vVqWPl5HhSfTiv-28">
          <mxGeometry width="50" height="50" relative="1" as="geometry">
            <mxPoint x="140" y="604.5" as="sourcePoint" />
            <mxPoint x="170" y="634.5" as="targetPoint" />
            <Array as="points">
              <mxPoint x="150" y="594.5" />
            </Array>
          </mxGeometry>
        </mxCell>
        <mxCell id="Mc-il4vVqWPl5HhSfTiv-126" value="" style="shape=image;verticalLabelPosition=bottom;labelBackgroundColor=default;verticalAlign=top;aspect=fixed;imageAspect=0;image=data:image/png,iVBORw0KGgoAAAANSUhEUgAAAMgAAADICAYAAACtWK6eAAAAAXNSR0IArs4c6QAAF2FJREFUeF7tnQlwHNWZx/9fjw5LMxoZc2rkgIPxBmTCnSUJ7GKDNTImXEmAJdlNQVhIamFr2YDJ5thwpFIJEJLsbgjFaUI4NiFxgFowGpljWViWK5wa44KAIdbImHBY0kjWjKa/rZYtsPFM9+vXb1o9mm+qXOWqed/7vvd7/VOf85ogHyEgBCoSIGEjBIRAZQIiiGwdQsCFgAgim4cQEEFkGxACegRkD6LHTaLqhIAIUicTLcPUIyCC6HGTqDohIILUyUTLMPUIiCB63CSqTgiIIHUy0TJMPQIiiB43iaoTAiJInUy0DFOPgAiix02i6oRAKIKMvZhY1BCzvs/AgQwMguie5v02La8TxjLMGiZQdUGKL7UdwRY9uiMjuqmpa9NZNcxOSq8DAtUXJJu8i4ETy7G0gOMauobuqwPOMsQaJVBVQXhtS2ex1Li+Mhu+oalr+OwaZSdl1wGBqgrinHvEYtZDLoI83NQ1vLgOOMsQa5SACFKjEydlh0NABAmHs2SpUQIiSI1OnJQdDgERJBzOkqVGCYggNTpxUnY4BESQcDhLlholIILU6MRJ2eEQEEHC4SxZapSACFKjEydlh0NABAmHs2SpUQIiSI1OnJQdDgERJBzOkqVGCQQWpJhN3gXgUwyk/DNgeVjRPzSJCJFAIEEK2SQHq1UECcZPovkzc1tG20pdxcbG12bf++Z7poloC1Jck/wNM04JVpAIEoxf/Ua/t2je7Oam4sUAn81A3CFBhCtae3PfNElFW5BCf3IDCLsHK0YECcavfqPz6dQ9AI7fgQDhznhv7lRTZLQFKWaTA3rnHduWLoKYmsh66iffPXcZyL638pjtZfHMhlUmmGgLMp5tX0ngk4MVIYIE41ef0fl057UAn1Np9AxclMjkrjRBR1uQkf74Hk0UcxZcOFi/EBFEn119Rr5/3J47NRYn1gAuh/dsHRfvW29kMRBtQZzp4adTrYWWkYss4k8yMKf8lNGiylMpgtTnZq4/6rHuzjNs4hUuPZRa23PNdCdK+lk+jAwkiFcBsmiDFyH53i+BfDrl3Hcru4zU1r7ujmdyJ/ntt1J7EcQUSemn6gSGl3TsZ1mUdUvETGcm+gZuNlWMCGKKpPRTdQL57o5vg+gHLomGWmObP0ar3h0yVYwIYoqk9FN1Avl06ikAh7kcDt3emsl92WQhIohJmtJX1QiMdKfSROh1S0BMp7b2DdxpsggRxCRN6atqBMZ6Oq6xmb7ukqA/nsntb7oAEcQ0UenPOAHumTtnlG3n3sdulTq3gUvbMrlLTCcXQUwTlf6ME8h3d/w9iK5367ghZi9sXrXB9QqXTmEiiA41iQmVQD7dcS9AyyomNfyA4rZ5RJBQp1qS+SUw0t15DBGvDvvkfCqfCOJ3xqR9qATy6Y5fAvSVsE/ORZBQp1mS6RDIL0kdDAt/cIut1sm5CKIzYxITKoGR7s6fEfE/uSR9x7JxSMvq3JvVKkwOsapFVvoNRGBsWcdepSI9R4TZlToi4MrWTO6iQIk8gkWQatKVvrUJ5HtS3wPjUpcONts2H9K2etC5P1K1jwhSNbTSsS4BPmGXttHNzc8BvLdLH7+IZ3Ln6uZQjRNBVElJu9AIjPakzmPGf7glLDJ/anbf4NPVLkoEqTZh6d8XAV6EhtGm1BMADnEJ/GU8kzvDV8eajUUQTXASVh0Coz0d5zPTT916t8BHtWQGH6lOBdv3KoKEQVlyKBHgYzp3HovxEwzMrxzAv41nBgMuWKhUzmQjEUSdlbSsMoF8OnUxAI8ncs2teaUynMCC8OuYhYnE3ps3l38UORazHnL5ayCLV6vMUh20ef/Yj81vKJWeIGBnl+H+Pp7JfT5MHIEE2bpqyS8B7KlXtCz7o8dt5kWNpDt/SuDz3c896JiWzMCDYY5eWxB+JdFVLFr9wYoVQYLxmxnR+Z6OQ8DkXLlqqDgiws3x3tyZYY9YW5BCNvkYgM8GK1gECcZvZkTnu1M3geC28dsA/2U8M/hM2CPWFqSYTQ4zkAhWsAgSjF/tRw+nO4+2wA+4jYSBf09kcm4PLVYNhLYg49nkWgL+IlhlIkgwfrUfnU+nVgKouAg6A++V2Dq8vW/9K9MxWn1B1rRfScwXBitaBAnGr7ajx3pSZ9qMm1xHQfh+vDf3vekaqbYgTsGFbPuNAH9Vv/jpEYSP3ad5BCPJRjQmS/ZEu13ipDMGisXeIzRsbE2+sdHU4sf6bGZ25ObuuQtssh9kYK7LSNfZKB3elnlr43TRCCSIU/TmF9vTVgN/gu3y16+J4Nz8qfAJR5CxpXvMK5Vii8jio8BwVpuf5wWcgXeI8BbZvNG26JYSrLvbe9e/6xUn36sRGE2n7mDgb9xaE9GFrb0DV6n1WJ1WgQVxK2s6V3cfPbZzLmycxsxfBPBpE/gIuM0GrypRbJXIok8035M6F4yfe/TwfGus9XBa9eq4fqbgkTNOkLGezsU24zSATwMq/xotILoNILopBloxq3f9qwH7qqvwQk/ngUVm52ZfhffJbMFhgc5oyQw4N6Gn9TNjBMl3dxzGRBcSHDlC+4wAWAEbK+Krc8+GlrWGE+V7UneDcYLHEG6KZ3JnRWGYNS8IH7fnTqMTpQux5Ypa03RBdV5BPDGOK5MP5/48XTVEPe9oOrWcgStczzuAV8eAo3fO5P4UhfHUtCAj3anTifCvAPaLAkwGnHtDV8QzOfdLl1EoNuQaRpd2fgY2O1etZrmlZvDfJjKDt4VcXsV0NSvISLrjnwn0k6iA3LYOIlpJVLqg5f4N66JY33TUlE+n+gAscc9N18YzA24ruIdeek0Kkk+nbgSgff9lYhZG3ptnJQpxoNgKFOIE2wIax4HGPKMpD7S8y2h33gSv+SFgLbP1DVNvW9UsIxJhw+nUJRbcLvdPlrmGG4pHJ+57e0Mkit5aRM0Jku9JvQ3GLn4gMrCJgNuZ+fGGGD35u39rOp0szwlDy3uMXV92/tmY+7TtJ+UHbU2+s1urgGkOGk6nTrOA//QqwyY6ra134Dde7cL+vqYEyXen3gb5kYNfZNDtMRu3b7v63m1r512iIsi2kzH7TcZej5Uw71ENUQg3T8C6oN7unYwsnXuAZdt/YCDmumETro735s4Le+NXyVczguTTqecAHKgyKACDRHRVpbuwOoJM5XVE+fgjJez5uE9RmJ6yYvyNlvtzjyqOoaab8aGHNuZ3HnyWgIVuA2Hwi3bJWpx8YOCdKA64JgTxfD/EdmfIuNri0lUtmbderwQ8iCBTfe7xgo0FfSXMeU39PIWAPDO+Ge/LXR3FjcFkTfl0x50AOU8xuO88mD/f2jf4e6920/V95AXJp1PXAThbBRAzfyXRN/grr7YmBJnKsU9fCfuuKiHm64EIvoVLpYsSD2x8y6vWWvw+35O6DDx5+d31w6AfJjID3/ZqN53fR1oQxasfk/waLOvA5vvXv6AC06QgTr45f2Tsv3ICO61T35sw8AIYyxN9uYxKzbXSZrQ7dToTbvesl7Ei3pfTvhLp2b+hBpEVJN/TeRyY/0tlnPFMztc4TAvi1Ng4BixcOYG9/tffuQkDyxOZ3I9Vxhn1NvmlqRNg426vOhl48OV3cksPewZFr7bT/b2vDctvsbpP844cs9vuiMVWE8jztb6xUmn+rAfees1PbdUQZCr/3g+VsP/KEsiHJ0T0K3uiuLyWD7lGulMXEeFyhXkYJ2BBa0QeJfGqN5qC9KRWEMNz7VUmdCd6c67vrysHoJqCOPl2XWtj4coS2tf7O+SyyLqstXf977wmLWrf53tSPwdDaaV1Ivvw1t4NT0ZtDJXqiZwgw92pcy3y/K0AiOnU1r6BO3VAV1sQp6bmYcbC35fwsSd87Eq2DOZ6a4J/0PLg4Bs6Yws7Jp9O3QBA6clbivgVq3LsIiVIvmevDnDRWdI+5TbRzHRmom/gZt2NIQxBpmr7+H+XsPCuEmIFH9US3gD4B/HeQdd3g/vosSpNR9OpWxn4skrnzLgq0ZcLuIaBSiazbSIliNJVKwMLiIUpiDNdOle5nDgC/5YZl8dDeA+Gn81qbGnqSLZxGQOLVeKck/JEJneMStuotYmMIIp7j3WWZS8O+pRs2II4k+5c5TrqR8X74n/mZX43AibcAfAtid7B+/3Gmm4/ku74FoEuc10FcZukBPy6NZNz/e256RpN9hcZQVT2HkEPrabATYcgTu4SsPgL540fxEzOQgSWxkT2Wcy3tPQN3qoRGyjE+cUmyLoU8CF4hJ+xUoURWBB+dvbsQnNpEZgOKnuSo7Cqicreg4H7E5ncsaoDc2s3nYL83YJ1D4/0pJYQ40oAZZl5jpHwLIFvaUHsFqrySitvH7FLWzzReJbNdBkBbZ61bW3w8rIYDj3/T4G3L9V81WoXaACFNcnznLvBQVd3H+3uPIWJXR91JqLTWg09Dj3dgjiT+c6xc5It9qzvMEP7NcYE/MkmPECMp8D8pMlzleEleyyKWdbJDDgvq+lQ3QDZAp4/vQFvfNbClxasC7R9qeasZjvtAUy83HambVPAn5ZuWRfL68UpBDzWmskdaQpEFASZGouzN7Fs/g4TOet1Bf0MAngazP9nMT3Sslr9yeGh41O7NIxb85ns48A4HcA+fosZnUN4/vQYNnZtOXqsa0HGs23PE+gAvxC3b79FkJHuzoOIuPKqIMxnx/sGnevtRj5REmRqQPnujm8T0XcYaDUyyC2dFInZWYUfTDRMwBAzD5NFQ7DBTDwfTPNBtDfA7UHyDh5o4eXPxTCU+vBvbl0LUsgm1W8TVyT/4cqK+XTqHgDH79iUrotnBr4WZPI+GhtFQZwat5wI03cBnGhyvNXsa7yNsHaZhdf/esffRNW7IM4NvUODwf9QkM09c/cpMS8H+Jytfa5jxjWJvpzrMjE6+aMqyAd7k3Tn57ZyKPMHQ2fE1YkZOMzC2mNjGN6j/JF6fQvS3/51EF8TDP2Oa/Nu6pk7B4wF7Zn1zhuHqvKJuiBRF2VsJ2evEZs8EXf71LUgDhhTV7GqYoFLp7UiyNQQRrtTR9iEkyzgRAYWhM1rKp9zOJU7mPDqkhhGd/a+vlP3gkye/PUn5xQA5/5E2YmLwurutXIO4rXh8ymIjQ13nMi2c45C3X4uv3r17fb92/tayB285Z+zVJLqRwTxIKX7exDVCdBtV2t7kErjdO5VwLIWxZiPMnSZ+INUziXbwa1SvPtx771FuRpFEBHEl6POoybOnXRfQT4a59MdzkWTQwHrUIC3/t+9g2ILkN+VkN+FJg+bxuYQRucAf15godTsI3mZpiKICOJrC6q2IJWK+XV2HjuLSjSM8+Rj9w1bF5gY3QUYT+jtHVQGLoKIICrbyQdtpkuQ21+ZZ+Cela+hTjYWQUQQX1uNCOILVyQaV2//CkBO0refYxEkEtu8ryJEEF+4gjUWQYLxm45oESRE6iJIiLANpRJBDIFU6UYEUaEUrTYiSIjzIYKECNtQKhHEEEiVbkQQFUrRaiOChDgfIkiIsA2lEkEMgVTpRgRRoRStNiJIiPMhgoQI21AqEcQQSJVuRBAVStFqI4KEOB8iSIiwDaUSQQyBVOlGBFGhFK02IkiI8yGChAjbUCoRxBBIlW5EEBVK0WojgoQ4HyJIiLANpRJBDIFU6UYEUaEUrTaBBdncn1xqWbQEbFdYRM5tzdkd18UKA89MWbRBlZX8olCV1I7tAglSyLbfCHCAd12LIPpTpx4pgqiz+mhLbUHG+9t+SET/op/aiRRBgvFTixZB1DiVa6UtSCGbfBXAfP3UIkgwdurRIog6K2N7kEI2OQQfbxwqX6LsQfSnTj1SBFFnZUyQYjb5PwwEfKmNCKI/deqRIog6K2OCeK9YolKUCKJCKWgbEUSfoPY5iJOy+FLbEbBoOWu/8EUE0Z869UgRRJ2VsT3Ith3x2pbOzYVY2dXdYzHrocrliSD6U6ceKYKos6qKIJXSex+GiSD6U6ceKYKosxJBAMiddP0Nxk+krM3rQUv2INsDkmex/OgVjbaBTtK9hiCCiCBe20jUvxdBQpwh2YOECNtQKhHEEEiVbkQQFUrRaiOChDgfIkiIsA2lEkEMgVTpRgRRoRStNiJIiPMhgoQI21AqEcQQSJVuRBAVStFqI4KEOB8iSIiwDaUSQQyBVOlGBFGhFK02IkiI8yGChAjbUCoRxBBIlW5EEBVK0WojgoQ4HyJIiLANpRJBDIFU6UYEUaEUrTYiSIjzIYKECNtQKhHEEEiVbkQQFUrRaiOChDgfIkiIsA2lEkEMgVTpRgRRoRStNiJIiPMhgoQI21CqQILw06nWQsvIRUT4HIAKq7u7VSqLNhiaR9duZNEGfcragvCrid2KBet+AAfrpxdB9NmpR4og6qw+2lJbkOKatt8y0xf0UzuRIkgwfmrRIogap3KttAUp9Cc3gLC7fmoRJBg79WgRRJ2VuT1INjnAQEo/tQgSjJ16tAiizsqYIOPZ9pUEPlk/tQgSjJ16tAiizsqYICP98T2aKHafnKSrw5fLvOqsotJS+xxk8u//h5d5vwhgof9ByUm6f2b+I2QP4p/ZVEQgQbzSysqK2xOSPYjXFhO970WQEOdEBAkRtqFUIoghkCrdiCAqlKLVRgQJcT5EkBBhG0olghgCqdKNCKJCKVptRJAQ50MECRG2oVQiiCGQKt2IICqUotVGBAlxPkSQEGEbSiWCGAKp0o0IokIpWm1EkBDnQwQJEbahVNMuiKFx+OpmhGLzxmDN8xVkoHE7l55rgv2+ga58dfE2NS7yFWCo8a5cfNhQV/67IesZ2+bVsxYOOT/q0/5MsyDadUugEFAkQDc1dW06S7HxDs1EEF1yElczBJj5R80Lh7+lU7AIokNNYmqNwB+buob20Sm6qoKMv9C2LzXQGp3CJEYIGCQw3NQ1lNTpr6qCOAUVssnHAXxapziJEQImCBDwaGPX0F/p9BWCIG1nAXSDTnESIwRMECiV7MUtnxzRuqJWdUGcAU7+cMqyrgDhUyYGLH0IARUCBNwNm69s3H/4MZX25dqEIshU4vEX4wfYoDl+i43FrIcqxTDjUtu2tf46uNVhWdYiIlwcdt5YjC4GqOJ9C+evoV9+Ku3dGDvx05OXHy6V+FKV+j/aZlZT6RX6xNiATuy2MaEKolOs1892HUGaFw5dotO3W8x4f/ISL0GqkbeQbXvISxDdwwW38RaySXb7vqlrqCrbinve6VmzQARRsEkE2R6SCKKw0UxHE9mDbE89yAmn7EH8b8FV2W36L6NyhAgigpjcnvz2JYJUICaHWHKI5RCIvCD8SqKrWLT6K5pP9LWm/TZd5/cvg1f7wpr2c8B8bcWrWOCTm7uG7/Lqx+/3hTXtPwbzBZXiClzqSCzMb/Dbr1f7Qjb5tMs7Xp5p6ho6zKsPne+LLms8M3BHc9fQl3T6NRUTfUFex6ziWHItgD3LDZpA3Y1dm1abAjLVTzHbvoTBfRX6fbNx3DqQDn7f+KPrm/uTSy3CqvJjxd2NXUMnmR6r019xTfJiZpS9GlitK4WTebPJuxg4sdyYqplXlWHkBXEGUvk8JNijzF6QKh5mEf6xab+hn3vF635fyLbfCPBXPxpPNh8Z5KaXWz3OMrLF1pFHy6y1/GzjaOJIOiw3qjset7jiS21HsEVO3o98pv8Sr1NQTQjiFLr1UOt6Ag5g4C1mvlP3EWY/Ez3e334KyP4ugQ5g8AsxCz9r2Hd4hZ8+dNqO97f9kIhOIWB3Bl4g5m82LhwusyHp9F4+xnlr2ESRfsE2HTm5cVj8aEMj/wPtM7LRXJYdeyr2tx3JRJd/OLe4tRr3mHTGUDOC6AxOYoRAUAIiSFCCEj+jCYggM3p6ZXBBCYggQQlK/IwmIILM6OmVwQUlIIIEJSjxM5qACDKjp1cGF5SACBKUoMTPaAIiyIyeXhlcUAIiSFCCEj+jCYggM3p6ZXBBCYggQQlK/IwmIILM6OmVwQUlIIIEJSjxM5rA/wNPdW59Lo2yOAAAAABJRU5ErkJggg==;" vertex="1" parent="Mc-il4vVqWPl5HhSfTiv-28">
          <mxGeometry x="490" y="470.01" width="60" height="60" as="geometry" />
        </mxCell>
        <mxCell id="Mc-il4vVqWPl5HhSfTiv-108" value="不同的代码仓库需要找CICD人员&lt;br&gt;协商配置，能否提供通用的模版&lt;br&gt;花较小的时间完成配置？" style="rounded=1;whiteSpace=wrap;html=1;labelBackgroundColor=#FFFFFF;fontSize=12;" vertex="1" parent="1">
          <mxGeometry x="70" y="690" width="180" height="80" as="geometry" />
        </mxCell>
        <mxCell id="Mc-il4vVqWPl5HhSfTiv-109" value="domain用户希望同时跑多个模块&lt;br&gt;出大包，但由用户配置Jenkins学&lt;br&gt;习成本高维护性差，能否由统一&lt;br&gt;平台下沉这些工具能力，支持&lt;br&gt;车砸定制化研发场景" style="rounded=1;whiteSpace=wrap;html=1;labelBackgroundColor=#FFFFFF;fontSize=12;" vertex="1" parent="1">
          <mxGeometry x="190" y="770" width="180" height="80" as="geometry" />
        </mxCell>
        <mxCell id="Mc-il4vVqWPl5HhSfTiv-94" value="SWE.3~SYS.5相关配置以及过程结果(报告、日志)能否走统一的入口查看，给予用户顺滑的体验？" style="rounded=1;whiteSpace=wrap;html=1;labelBackgroundColor=#FFFFFF;fontSize=12;" vertex="1" parent="1">
          <mxGeometry x="400" y="670" width="180" height="80" as="geometry" />
        </mxCell>
        <mxCell id="Mc-il4vVqWPl5HhSfTiv-107" value="统计信息分散到各个平台，能否收集到一起，通过可视化的方式&lt;br&gt;呈现，帮助优化和规范研发流程" style="rounded=1;whiteSpace=wrap;html=1;labelBackgroundColor=#FFFFFF;fontSize=12;" vertex="1" parent="1">
          <mxGeometry x="440" y="780" width="180" height="80" as="geometry" />
        </mxCell>
        <mxCell id="Mc-il4vVqWPl5HhSfTiv-116" value="" style="shape=image;verticalLabelPosition=bottom;labelBackgroundColor=default;verticalAlign=top;aspect=fixed;imageAspect=0;image=data:image/jpeg,/9j/4AAQSkZJRgABAQEAZABkAAD/2wBDAAMCAgMCAgMDAwMEAwMEBQgFBQQEBQoHBwYIDAoMDAsKCwsNDhIQDQ4RDgsLEBYQERMUFRUVDA8XGBYUGBIUFRT/2wBDAQMEBAUEBQkFBQkUDQsNFBQUFBQUFBQUFBQUFBQUFBQUFBQUFBQUFBQUFBQUFBQUFBQUFBQUFBQUFBQUFBQUFBT/wAARCAHcArwDAREAAhEBAxEB/8QAHgABAAEEAwEBAAAAAAAAAAAAAAECAwUJBAYHCAr/xABQEAACAQIDBQMHCgIJAwIDCQAAAQIDBAUGEQcIEiExE0FRCRQiMkJhcRUjM1JygZGhscFikjQ2Q1NzgqKz0RbC4SQ1FyZjRFSDhJOjstLx/8QAFgEBAQEAAAAAAAAAAAAAAAAAAAEC/8QAFhEBAQEAAAAAAAAAAAAAAAAAAAER/9oADAMBAAIRAxEAPwDamAAAAAAAAAAAAAAAAAAAAAAAAAAAAAAAAAAAAAAAAAAAAAAAAAAAAAAAAAAAAAAAAAAAAAAAAAAAAAAAAAAAAAAAAAAAAAAAAAAAAAAAAAAAAAAAAAAAAAAAAAAAAAAAAAAAAAAAAAAAAAAAAAAAAAAAAAAAAAAAAAAAAAAAAAAAAAAAAAAAAAAAAAAAAAAAAAAAAAAAAAAAAAAAAAAAAAAAAAAAAAAAAAAAAAAAAAAAAAAAAAAAAAAAAAAAAAAAAAAAAAAAAAAAAAAAAAAAAAAAAAAAAAAAAAAAAAAAAAAAAAAAAAAAAAAAAAAAAAAAAAAAAAAAAAAAAAAAAAAAAAAAAAAAAAAAAAAAAAAAAAAAAAAAAAAAAAAAAAAAAAAAAAAAAAAAAAAAAAAAAAAAAAAAAAAAAAAAAAAAAAAAAAAAAAAAAAAAAAAAAAAAAAAAAAAAAAAAAAAAAAAAAAAAAAAAAAAAAAAAAAAAAAAAAAAAAAAAAAAAAAAAAAAAAAAAAAAAAAAAAAAAAAAAAAAAAAAAAAAAAAAAAAAAAAAAAAAAAAAAAAAAAAAAAAAAAAAAAAAAAAAAAAAAAAAAAAAAAAAAAAAAAAAAAAAAAAAAAAAAAAAAAAAAAAAAAAAAAAAAAAAAAAAAAAAAAAAAAAAAAAAAAAAAAAAAAAAAAAAAAAAAAAAAAAAAAAAAAAAAAAAAAAAAAAAAAAAAAAAAAAAAAAAAAAAAAAAAAAAAAAAAAAAAAAAAAUuWjAjj+P4AVKWoEgAAAAAAAAAAAAAAAAAAAAAAAAAAAAAAAAAAAAAAAAAAAAAAAAAAAAAAAAAAAAAAAAAAAAAAAAAAAAAAAAAAAAAAAAAAAAAAAAAiT0A+St+bfLo7AMCWWMrXFG42g4lR4oNpVIYXRf8Ab1I9HN+xB9fWfJaMNTWN7S89Yzj88dvs44/eYvKfaO9niddVVLxTUlw/BJJeAH0psQ8p9tO2bOhh+cKdPaBg0NIud3JUcQhH3V0tJv8AxItv6wGwjYdvv7KNu/m9phOYI4Rj1VJfImN6W1y5eENXwVf8km/cgPfVNP4gTxICQAAAAAAAAAAAAAAAAABGoDUBqA1QDVANQJAAAAAAAAAAAAAAAAAAAAAAAAAAAAAAAAAAAAAAAAAAAAAAAAAAAAAAAAAAAAAAAAAAAEAfPW+FvX4Xu1ZI+Y7G/wA54pCUcJwyb1S05O4qpc1Tg/5n6K72g0yZlzLimcswYhjmN31bE8XxCtK4uru4lrOrUfVvw8ElySSS5IDGaAW6lvCqvSjz8UBxK2Htc4ekk9fgwPoHYjv57Xdh3m9nSxp5pwClovkjMDlXjCK7qdbXtKfuWrX8IGwXYd5S/ZXtTdvYZgrVNn+O1NI9hi807SpJ6coXKXD/ADqDA+tbS+oX1tSuLatTuLerFTp1aUlKE4vo01ya96Avp6gSAAAAAACNQGoFLml3gTxff8AKaleFKm51JKnBdZTeiX4gdexTaVlPBFJ4hmfBrHh6+cYhRhp+MgOkYxvabHsBbV5tGwCLXVUbtVn+ENQOm4n5QLYpZScbbM1zi8/q4fhlxU1+GsUBip7/ADlvEXw5fyBn7MEn0dtgjhF/fKQELev2mYwn8hbu2bKyfq1MTuadrH79Y/uBZltY3nca/oGyTLGCRfSWL44puPxUJICxOrvc3rjUhd7NLDif0HDXqae7i5gYzD9pe9lh1hTvpZJyLm60mm1Gwv521ZpNp6KU1z1T7mBfob/NxkW7pWm1zZRmnZ6pNReIwpeeWevjxJJ6fDiA+hdnG2zI21yyV1lDNGG49BridK2rrtofapPScfvQHdVPUCsAAAAAAAAAAAAAAAAAAAAAAAAAAAAAAAAAAAAAAAAAAAAAAAAAAAAAAAAAAAAAAACG9APJt5PeJy/u37Pa+YcYkrrEK2tHDMKhNKrfXGmqivCC5Oc+kV72kw0m7TdpeP7Xs74nmvM1677F7+fFOS1VOlBepSpx9mEVyivi3zbYHV0gJAARoBRUpRqcpLiA4tbD09eB69zTA9I2ObzO03YBdQ/6RzLc2mHqXFPCbv8A9RY1PHWjLlH4w4X7wNgGw7ysGUszOhh20rCKmT8QlpF4pYqVzYSfjKOnaUl90l7wPtzK2d8AztgdHGcAxqwxnCasdYXtjcQq0n/mT0T9z5oCjE8/ZawVSeIZhwqxS6+c31Knp+MgOk41vTbJMvtq92iZfhJdVSvY1X+ENQOl4pv+7EsPk4Uc2VMUmvZw/Driq3/oQGHlv+5Svnw4FknPmYJP1XaYHJRl98pAQt7faHjEX8g7vOcLhP1amIVYWsfv1iwLT2wby+M/+37Hcv4NGXSWMY7GTXxUWgKJS3rsc9bFNneWYv8AuqVa5lH8eJMCieyPeEx164tt5tsOi+sMFwGEdPg2ogUS3TczYv8A1g287QMST9aFrWjaxfu5SYEU9w7Z5cy48YxbOGYJvq8Qx6po/uikBncL3JNieFNSWRLS8kvav7mvXb+Os9PyA7nhGwDZngOnmGQMt27XRrDaU3+MkwO32GXsLwlJWOF2Fkl0Vta06Wn8sUBke0qcPD2kuHw4noBS4pvV837wCWgFVP6WH2l+oGCyUtcq4f8AZn/uTAy11a0b20qWtzRp3FtVXDOhWgp05rwcXyf3oDwDaFuMbLs63ssVwrD7rImYE+OnimV67tZRn9Z0/U/Dh+IHVqWAb0ewlp4DmHDNtOXaXSxxpeb4lGPhGbacnp/HL4Adiyn5QrJ9PFIYJtLwDHNlWP68M6ON2s5Wzl/DVUddPe4pe8D6Wy1m7Bc5YZTxLAcXssZsKiTjc2FxGtTf+aLYGYTAdQJAAAAAAAAAAAAAAAAAAAAAAAAAAAAAAAAAAAAAAAAAAAAAAAAAAAAAAAAAAQwOj7Y9r+XNiGQMRzZma783sLSOkKUNHVuar9SjSj7U5Pkl3c29EmwNJW3zbrmLeF2g3eaMwVOzi9aNjh1OTlRsbfXWNKHi++Uuspc/BIPOUBIAAAAAGBTKCktGtV7wOLVsIy5wfC/BgV4diuK5elN2F7cWcZvWcaNWUYVH/FFPSX3oD6P2D7xWyPC529htV2UW+LaNJ49hletOf2qltKpwv402vsgbF9jeBbve0vCViOz7BcnYxSgk506FlTlc0PdUpVE6kH8V94HsOH5YwfCYpWGEYdZxXTzazpU9P5YoDJqrOK0VSaXgpNIClri68/ewGi8AJAaANAGgDQAAAAAAE0/pYfaX6gYPJP8AVXD/ALM/92YGbAaAQ0vADE5oyjgedsLnhuYcHsccsJLR22IW8a0F8FJcvitAPnXMG4blvC8UqY3stzTj2ynHW+JPCrqdW0k/CVKUuLT3cTXuA4tLaVvO7C/RzVlPDtseXaPrYpl2XY36gu+VJLm/8j+IHoWzLfz2TbQ7qGG3eMVcm49qoTwvM1LzOcZeCm/Qf8yfuA+hba8o3lCFe3qwr0ai4oVKclKMl4prkwLyeoEgAAAAAAAAAAAAAAAAAAAAAAAAAAAAAAAAAAAAAAAAAAAAAAAAAAAAABGoGBzvnbBtneVsTzHmG/pYZg2HUXXubqs+UIr9W3oklzbaS6gaWN63efxreYz67+v2thljD5Tp4PhEpcqMHydWolydWaXN9y0iuSbYeI6ASAAAAAAAAAAQ4prR80Bx6tlTqdPRYFWE4ni2VMWoYpg+IXeFYjbvio3tjXlRqwfunFpr9APr/Yr5ULPuSXQsM/WFLPWFw0i72LjbYjBePGlwVX9qKb+sB987F97PZht5hSo5azHRp4xOOrwTE0rW+i/BQk9KnxpuSA9fceFtaNNdU+4BqAAAAAAAAAAAAE0/pYfaX6gYPJP9VcP+zP8A3ZgZsAAAAAI0569/iB0naPsUyLtctJUM35Ww7G21oritR4biH2asdJr8QPB57muatldxO+2IbVcYynFPjWAY3J3mHzfh0ei+MG/eBfpb1+2LYqlR2x7KK+I4VT9GWZ8nS7ejp9adPVpfjD4Ae3bKN6zZdtmjTp5azbZVMQmlrhl5Lza7i/Ds56OT+zqB63FgTqAAkAAAAAAAAAAAAAAAAAAAAAAAAAAAAAAAAAAAAAAAAAAAAAAAAEdAOHiuLWmC4ZdYhf3NKysbWlKvXuK81CnSpxWspSk+SSS1bA06b6++BebxeafkbA61a12fYVWbs6D1i7+quXnNWPhzfBF+qnq/SlyD5j0AkAAAAAAAAAAAAAENAWalrCqunC/FAcSVnVoTjOm2pQfFGUXo4td6fcwPpDYr5QfavsgVvY32IRztgFLSPyfj05TrU4eFO5XzkfhLiXuA++9iflBtlO1/zeyvMSlknMFXSPyfj0owpVJeFO4XzcvhLhfuA+louM4RnFqUJrijKL1Ul4p9694EvXwAAAAAAAAAAJp/Sw+0v1AweSf6q4f9mf8AuzAzYAAAAAAADQCE3FvRtarR6d4Hju1HdI2V7XJVLjGsq21pikuaxXCP/R3Kl9ZyguGT+1FgeY0thO3rYcuPZZtRjm/BaXq5bzpHjaj3QhW5pfc4AZLDd/O+2f3lLDNtuzXHcgXbfD8q2lJ3eH1H9ZSXNL4OYH0hs82v5K2q4erzKOZsNx+i1q1Z11KpBfxU36UfvSA7gppgVAAAAAAAAAAAAAAAAAAAAAAAAAAAAAAAAAAAAAAAAAAAAAAABRUmqcJTk1GMU22+SQGqPf630JbV8SutnuSr3/5Ls6vDiF/RlyxatF+qmutCDXwnJa+qlqHxWAAAAAAAAAAAAAAAAAAI0At1beFVekufiBw6+HvhfDpJPqmB6xsZ3s9qWwSpSoZczHWrYPB6vBMUTurJrwUJPWn8abiB977FPKhZBzr2Fhnyxq5ExWWkXeJyucOnLx40uOl/ni0vrAfYuCY5huZsKoYnhGIWuK4bcLio3ljWjWo1F/DOLaf4gc3oA1AAAAAABNP6WH2l+oGDyT/VXD/sz/3ZgZsAAAAAAAAAAARoBYvbC2xOzq2l5b0bu0qrSpb3FNVKc174yTT/AAA+fM/biezLNV+8WwC3vtnuYYvjp4nle4dvwy8XS14ev1eEDrtKx3pthH/tmK4Vtvy7S6WuILzbFFD3SbTk/vn8AOzZN8oVka4xOOCbQcJxnZZmFPhnbY/az7DX3VUunvlFAfSuX8zYTmvDqWIYLidni9hVWsLqxrxrU5fCUW0BlNQAEgAAAAAAAAAAAAAAAAAAAAAAAAAAAAAAAAAAAAAAAAAiT0A1xeUK31XOWJbKch37S52+YMXtp8/CVnSkvwqSX2F7Wga6VySXLRdy5ASAAAAAAAAAAAAAAAAAAAACNAKZ0o1FpJagcSrYd8H9zA7Vsy2x562KYt5/k3Ml/gNaUtatGhPW3r+6pRlrCf3rUD762G+U4rYjSt7LahlOpaSekfl3AYcVN/xVLaT4l8acn9kD7ZyNn/Lm0vAaWNZWxm0xvDJvg7e1nrwT6uE4vSUJLX1ZJP7gOwp6gAAAABNP6WH2l+oGDyT/AFVw/wCzP/dmBmwAAAAAAAAAAAAANAIa5adwGEzdknL+fsLlh2ZcEsMesZLTsMQt41kvg3zj8U0B8741uIYPgGJ1Ma2S5yx/ZXjLfEqdhczr2U34Spt8Wnu1kvcBYp7XN5jYXyzrkmw2tZeo+tjOVpdleqC9qdJLn/IviB6Psu37dke0y5hh8sfeVccb4J4VmSn5nVjL6qlJ8Df+bX3AfQNG6p3FKFSlUjVpzSlGcHrGS8U11AucWoFQAAAAAAAAAAAAAAAAAAAAAAAAAAAAAAAAAAAAABEnomB8Q7/e+p/8LsNudnmSb1LOd5S4cQxGhLV4TRkvVi+6vNPl9SL4uriBqrbcm2223zbb1bfvfe/iAQAAAAAAAAAAAAAAAAAAAAAAABDAzeB4QqnDdV46xXOnF9/vYHYOoHoGxTbdmTYRnCGO4BXU6VTSnf4bXk/N76kvYml0kufDNc4vxWqYbXNjm2TLm3HJ1LMGXbltJqneWNZpXFlW01dOql396kuUlzT8A70AAAAJp/Sw+0v1AweSf6q4f9mf+7MDNgAAAAAAAAAAAAAAAAEMAuTTXJrvA6FtM2DbP9sVtKlm/KeHYzUa0V3Ol2dzH3xrQ0n+La9wHgs9zfPeyOrK82F7XcVy9Ri+OOW8yPzzD5fwp6PhXxh94HHut93afu+1Le2297Kq1DDJ1FShmrKdWNe0qP3wb0TfhxxfggPorY7vTbMdvEYwybmyyxDEODjnhdZuheU1360Z6SenitV7wPV4y1SYFQAAAAAAAAAAAAAAAAAAAAAAAAAAAAAAAAAAKZSSA+Wt9zfDtN3fLDwTAKtG72gYpRbtKMtJxsKT1XnNVfHXgi/WktfVTA094liV3jOI3N/f3Na9vrqrKvXubibnUq1JPWU5SfVtvVsDjgAAAAAAAAAAAAAAAAAAAAAAAENgZTBsJ87mq1VfMJ8l9d/8AdnSX3e4CQI0A7lsl2t5j2LZwoZiy1d9hcxSp3FtU1dC7o66ulViusX3PrF800wNrewnb1lzb9lJYvglR219b8MMRwmtNOvZVH3P60Ho+Ga5SXg00g9JAAAJp/Sw+0v1AweSf6q4f9mf+7MDNgAAAAAAARqA1AagHLQAnr05/ACqcZU4uU4uEfGS0X5gYLFc8ZbwOMniOYcIsEuvnOIUabX3OQHTMW3nNlGDNq4z/gkpL2bas67/AApxYHUcS34NlFk2rbEsWxaS7rDCK0k/vkooDqeK+UCyzQ4vk3JGaMQfdKsqFtF/zTk1+AHR8b8ovjlNS+TNmlrR8JYljev4qnT/AHA81zH5RraxNTVlhWUMJXdpbXF1JfzTS/IDwHbTvY7UtsmXbjL+aM1RngVeUZVsOwzDqNrSrOLUo8bWspJNJ6a9UXB4pkvNktnGeMCzPh1srm/we9pX1CNzWnGEpwkpJN03GST00ej6cunIYN6+67vEYVvN7KLLN+HWzw66VWdpiOHSqcbtLmGjnBS0XFFqUZRlotVJck9UQevoCQAAAAAAAAAAAAAAAAAAAAAAAAAAAAAAABDeiA8J3st6TBd2nIcr2qqWIZpxCMqWD4Q5c61RLR1KmnNUoapyfe9Irm+QaW85ZxxnaFmnEsx5gv6uKYziNZ17m7rdZyfJJLpGKWiUVySSS6AYcAAAAAAAAAAAAAAAAAAAAAAAAhgc7CsMeIVdZaqhF+lJd/uQHa4QUIKMUoxS0SXcgKwAACGB2bZztIzDsnzbaZky1fyscTtvR5rip1qb9alVj0nCWnOL+K0aTA2rbu+8bl/eEyu7qx4cOzBZwj8pYNUqcU6DfJTg/bpSfSfd0lo+oetIABNP6WH2l+oGDyV/VXD/ALM/92YGbAhsAnq9E9WBU6c4rWUJRj4uLSAxGJZswPBYuWIY3hlgl185vaVPT+aSA6bi28fstwRyV3n/AAJSj1jRuu2l+EFIDqeIb6myiz1VDGr/ABSS7rDCq89fvaigOt4hv3ZWp6rDco5oxF9zqUaNtF/zTb/IDrOI792Lz1WG7O6dFd0sSxhL8VCH7gdXxLfW2k3WqtcNyphK7m4V7mS/GSX5AdVxLeo2q4gnx52tcOi+7DcJowa+DkmwOpYrtoztivF5/tJzNXT6xo3nm8fwppFwdPxHHre/k5YhiWJ4nJ9Xe4jWqa/jIYMU8QwC3blDDbXi8ZQ4n+YwRLOdpbrSjSo0kvqU4r9i4OFc7QO5VWvgwMLe547TX0/zKOv4hm3tNfSA6tiWPdrrzA6rf3/aNvUDB3FXik2BtL8jd2j2b7SG5N0vlu3UY68lLzZav9PwM0bEEQSAAAAAAAAAAAAAAAAAAAAAAAAAAAAAAAQ3oB5lvA7fMubvGz67zPmCq6s/orHDqUkq19cNaxpQ16eMpdIxTb94aS9rm1rMW23PmI5tzPdecYjeS0hShqqNtSTfBRpJ9IRT+LerfNsDpwAAAAAAAAAAAAAAAAAAAAAAAAYHJw7D54hXUI+jBc5T06L/AJA7bQoQtqUaVOPDCK0SAugAAAABGgGcyTnbG9nWaLDMOXcRq4Xi9lPjo3FPnyfrQlF8pQkuUovk19wGy7Y1vuZC2gZOheZmxaxyhmG2She4fdTkoTlp9JQejc6b8PWi+T15Nhn8R3ytk9jxKlmG5xKS6LDsNr1dfg+FIDrl7v05Roy1w3LGacTcXqm7Snbxf3znr+QHSrTfaxHCcJoWWH7PpTdFSSq4ji0KaesnL1YRb7/EDCYlvtbQ7nVWuC5UwqPc6k69zJf6kgOq4lvXbVb/AF1zfhuHJ92HYPSTXwc9WB1PFNuWfMU4le7S8x1IvrG2uI20fwppFwdPxPMyxNuWI4zjOJyfV3uKVqmv3cQwYSd9gFGXEsOtpS+tUjxv8XqXBP8A1jZWqao0Leku7gpxX7DBx620RpaKpovcxgxtxtEb1+d/MDG19oMufzn5gY+vn+T1+c/Mo4FbPc3r84/xIMfWzvN/2j/Eo4NbOk3/AGjA4VXOE5e2Bw6ua5v23+IHEq5mm/abA4tXMM5e0BxKuNSlr6QHDrYjKXeBwqtzxAceU9dQNs3kdLXg2K54uP73MnD/AC2tH/kzR9/ogkAAAAAAAAAAAAAAAAAAAAAAAAAAAAABAHUdqe0/L2x7JOJZrzPexscJsIcU31qVZvlClTj7U5PRJfsmwNJu8bvCZh3j9oVxmLGXK1saXFRwzCoT4qdjQ11UV9actE5z737kkg8tAAAAAAAAAAAAAAAAAAAAAAAAAF20tKl7XjSprm+bfcl4gdus7OnZUI0qa5Lq31b8QL4EgAAAAAAhgZPLtGr8p0LiFaVtGhNVHWj1i13L3vp+oHol1tHcW+Gq4+5PQ1gxNztFb11qt/FjBi7jaE3rpU/Mox1fP83r85+YGPr58m9fnPzA4FbPE37f5gcGtnSb19P8wOFWzhN/2n5gcKrmub19Nv7wOLUzPN+2wOLUzFUevpAcaeO1H7YFieNTftAWJYtN+0BaliUvrfmBalfyb5yAod7J97Atu7b7wKHct94FLrt94EOq33gUuTYDV+IEdANv3kgbXst3HMFfT6bM9xz+zQoIzR91IgkAAAAAAAAAAAAAAAAAAAAAAAAAAAACGBic05owrJeXcRxzHMQo4ZhOH0ZXF1d3EuGFKEVq2/2XVtpLmwNL+97vV4rvMZ5c6Lr2GTMNnKOEYZUejfc7iqv72S7vYi+Fe02HgSAkAAAAAAAAAAAAAAAAAAAAAAAAqpUZ3FWNOnFynJ6JIDtuHYfDD6PAvSm+c5+L/wCAOYAAAAAAABGoFMpxitZPRLqBwL3M8ban2VN8MV+fvNDA3OaJv2yjgVMyTb9b8wONPH6j9p/iBYnjU37T/ECxPFpv2mBaliUvrAWpYhJ+0Bbd7J97Aod3J+IFDupagUu4k+8Cl1pMCO0fvAjibAc/ECAGgDQABIAAAAhgblPJK2/Y7qtSf99mK/n+HZR/7TNH2oiCQAAAAAAAAAAAAAAAAAAAAAAAAAAAAOPe3tDD7atc3VanbW1GEqlWtVmoQpxitXKTfJJJNt92gGoLfl3x623/ADHLLOWLipR2fYZW4oSWsXitaL5V5r+7j/Zxf2nzaSD5Q7wJAAAAAAAAAAAAAAAAAAAAAAAAEYyqSUYpyk3oku8DtWEYYsPpcUvSry9Z/V9wGQSAkAAAAAAEMCirVjRg5zeiXUDq+MY9xNqL0S6JGoOqXeJOpJ82UY6pduT6gW3cSYFLrSfiBDqNgRxMCG2wJ5+IEANAJAAAAAAAAAAAAAAAAQwN0/kq7bsN0XCZ6fTYviNT4/P6f9pmj7BXQgkAAAAAAAAAAAAAAAAAAAAAAAAAAAFMny5MDVv5QTfS/wCv7y92ZZHv+LLNvN0sYxO3lyxGrF86FOS60Ytek168lp6q9IPhXTUCQAAAAAAAAAAAAAAAAAAAAAAACOoHZcFwnzWCrVY/PSXJP2F/yBluqAkAAAAAAACiUlFNyeiXNvwA6tjuNdo3GL0gui/c1IOoXt25yfpFGNqT1YFAAAAAAAAAAAAAAAAAAAAAAAAAAAR3gbv/ACZNp5tub5Ml/fV7+r+N3VX7GaPqlEEgAAAAAAAAAAAAAAAAAAAAAAAAABTKWgGvjyhO+l8hQxHZXkPEHHE6kXRx7Frapztotc7WlJdKjT9OS9VPhXpN8Ia1EtEkkkly0QEgAAAAAAAAAAAAAAAAAAAAAAAENgZ7A8I4eG6rR59YRf6sDOpASAAAAAAABDegHXMdxlaOnTlpBdX4ssg6ZfXjqSfPU0MVUqasC0BIAAAAAAAAAAAAAAAAAAAAAAAAAAQvWXxQG9fydNt5tuY7M0us7W5qPX+K7rMzR9IogkAAAAAAAAAAAAAAAAAAAAAAAAAUyfID413898+GxbCKuSMn3kZZ8v6Ote6ptS+SaElym/8A60l6ke5ek/Z1DUzVqzuKs6lScqlScnOc5ycpSk3q22+bbfNt82wIAAAAAAAAAAAAAAAAAAAAAAAAIYGXwTCfOJK4rR+aT1jF+0/H4AdkSAkAAAAAAACGwMJjeLqlCVKnL3SaLIOj4hfOpI0MTWq6t8wLHUCQAAAAAAAAAAAAAAAAAAAAAAAAAAAI+vH4gb6Nwe2813PdlcOmuERqfzVJy/czR9AEAAAAAAAAAAAAAAAAAAAAAAAAAhgfNW+fvc2G7dk9WWGSoXue8VpP5Nsp+lG3h0dzVX1Iv1Y+3JadFJoNN+N43iGZcZvsWxa8rYjid9WlcXN3cz4qlapJ6ylJ97f/AIWi5AcIAAAAAAAAAAAAAAAAAAAAAAAAMDIYRhTv6nHUWlCL5/xPwA7TGKikkkkuSSAqAAAAAAAAjUDFYzisbSm6cGuN9X4FHRsRv3UlLmaGFrVnJgcdvVgSAAAAAAAAAAAAAAAAAAAAAAAAAAAABCej18AP0AbmFp5lupbKKWmmmXbOWnxpp/uYHtIAAAAAAAAAAAAAAAAAAAAAAABHQDxnek3l8C3adn9TGL/gvscu+KjhOEcek7utp1ffGnHVOUu5aJc2kBpTz/n7HtqGcMTzRmW/niWM4jV7WvXnyS7owhHpGEVpGMVySXxA6+AAAAAAAAAAAAAAAAAAAAAAAANQOXhmHTxCtpzjSj68/wBl7wO2UqUKNOMIRUYRWiSAuAAAAAAAAQwIrLs7OvXbcVCEmve0iweb4niLqSfP4mhgq9bj1A4zfEAAAAAAAAAAAAAAAAAAAAAAAAAAAAAAAUTekJvwi3+QH6Gt1y08x3cNl9DTTgy1h/L/APLwMD1EAAAAAAAAAAAAAAAAAAAAAABDegHnu3LbblzYJs9v815jruNCj83bWlNrtryu0+CjTXfJ6deiSbfJAaS9t22nMe3vaDf5szLXUrmu+ztrSnJujZUE9YUaSfsrvfWTbb68g6GgAAAAAAAAAAAAAAAAAAAAAAAABfsrKpf11Thy75S+qvEDt1rbQs6EaVNaRj+LfiBdAkAAAAAAEMC5Ro8erfKC6v8AYQY7MF9ph9zGL4YqlJJfcbHlFxXc3zYHElLiYEASAAAAAAAAAAAAAAAAAAAAAAAAAAAAAAtXD0t6z/gl+gH6NNhlsrLYtkG3S0VLL+Hw0+FtTMDvIAAAAAAAAAAAAAAAAAAAAAEN6Ada2ibQ8C2WZPxTM+ZL6nh2DYdSdWtWn1fcoxXtTk9FGK5ttIDSlvPbyePby+0GpjWIqdjglpxUcIwfj1jaUW+bl3Sqz0TnL4RXJIDx5ASAAAAAAAAAAAAAAAAAAAAAAAAV29vUuq0aVNcUpfl7wO3WFjTsKCpw5t85S+s/+AOSBIAAAAAAAFVKk6smukV1l4IC3fXipx4IejFdDY61jFdysbnn/ZS/QDzaU+JAAAAAAAAAAAAAAAAAAAAAAAAAAAAAAAAABauFrb1l4wkvyA/SRs0t/NNnmV6GmnZ4XaQ0+FGCMDsoAAAAAAAAAAAAAAAAAAAAAGMzBj+H5ZwW9xbFb2jh+G2VGVxc3VxPhp0qcVrKUn4JAaa983e4xDeVzirXDZVrLIeFVX8m2M/Rlcz6O6rL60lrwxfqRfi5AfOSQEgAAAAAAAAAAAAAAAAAAAAAAAE04SrVIwgnKUnoku8DteF4bHD6PPSVaXrS/b4Ac7QCQAAAAAAAJp03VlpEBd3Mben2cHy734msGBubhzbKMXiUtbG5X/05foB5/HoBIAAAAAAAAAAAAAAAAAAAAAAAAAAAAAAAAjg7R8H1vR/HkB+lbLVv5pl7DKGmnZ2tKGnwhFGBkwAAAAAAAAAAAAAAAAAAAhgWbi5p2tGpVrTjSpU4uUpzekYpLm230SA1Kb+O+bPbbjNXJOULuUchYfW+euqba+V68Xyn/gxa9Be0/Tfs6B8egSAAAAAAAAAAAAAAAAAAAAAAAANHJpJat9yA7Ng2FeZQ7Sovn5Lp9ReHxAyiAkAAAAAAABGLnJRS1b5aAXLitG0pOEXrJ+tLxNDA3l05N89SjgTnr3gcW/8A6Fcf4cv0A6BHoBUAAAAAAAAAAAAAAAAAAAAAAAAAAAAAAAAOThNDznF7Cj/eXNKH4zigP0t0YKnTjBdIpRMC4AAAAAAAAAAAAAAAAAAAFMnogNZvlCd9P/qGviGyzIl/rhdOToY/i1tPlczT9K0pSXsJ8qkl6z9FclLUNf6QEgAAAAAAAAAAAAAAAAAAAAAAAEMDsOCYT2Sjc1o/OPnCL9n3/EDNaASAAAAAAABHNvRLn4AX5yVlSev0jXN+HuLIMHeXfG2aGNqT1At9QLF9/Q7j/Dl+gHQI9AKgAAAAAAAAAAAAAAAAAAAAAAAAAAAAAAABmsj23nueMt2/97itnT/GvBfuB+kyPf8AEwKgAAAAAAAAAAAAAAAAABEpaJsD4N8oJvq/9D2l5syyLfNZluIdnjGKW0+eHUpL6CnJdK0k+b9iL+s1oGr5aaLToumgEgAAAAAAAAAAAAAAAAAAAAAAABgZnA8J7Vxuay9Bc4Qfte/4AdhQEgAAAAAAAQ2BfWlrT45fSNcl4GsGGvbxzk+ZRi6lTVgWwAFi+/odx/hy/QDz+PQCoAAAAAAAAAAAAAAAAAAAAAAAAAAAAAAAAdw2M2nn22LIdtpr2uYMOhp8bqmQfo2j3/FmRUAAAAAAAAAAAAAAAAAQ2B8kb9O+TQ2CYBLK2V7qnX2gYnR1g1pKOF0Jcu3mvrvn2cH3rifJcw1EXd3Xv7qtc3Vapc3NacqtWtWm5zqTk25SlJ822222+rYFsAAAAAAAAAAAAAAAAAAAAAAAAhgZPBcK89n2tVfMRfT678PgB2fTlppoumiAkCQAAAAAAQwL1OCow7WfX2U/1LIMXf3zm3zNDE1anEwLPUAAAsXv9EuP8OX6Aefx6AVAAAAAAAAAAAAAAAAAAAAAAAAAAAAAAAAD0bdstvO94jZhR014sz4dy+FxB/sQfohj3/EyJAAAAAAAAAAAAAAAAQ3ogPnvfB3rsK3asjp0Oxv854pCUcJwyb1S7ncVUuapQf8AM9IrvaDTHmbMuK5yzDiGOY3f1sTxfEK8ri6u7h6zq1H1b8PBJckkkuSAxoAAAAAAAAAAAAAAAAAAAAAAABGoHNwrDJYjW1eqox9aXj7l7wO2QpxpQUIRUYxWiS7gKgJAAAAAABDAvUaaUe0qequi8RBwMQvnJvRmxhatVykBYbcgAAABYvFraV/8OX6MDoEeiAkAAAAAAAAAAAAAAAAAAAAAAAAAAAAAAAAeubodr55vTbJ6T6PMlnL+WXF+xB+gqD1WviZFQAAAAAAAAAAAAAAEN6AeTbyO8Rl/dw2e3GYcZkrm+ra0MMwqE1GrfXGmqgvCK6yn7K97SYaTtpu0zMG1/O+J5rzPeu+xe/nxTaTVOlBepSpx9mEVyS+LerbbDq6WgAAAAAAAAAAAAAAAAAAAAAAABGoHJw+xniFdQjyiucpaeqv+QO3W9CFtSjTprhhEC4loBIAAAAAAI1AuUKXG3KXKC6+8uDi4hfa6pPRLkkjQwlatxN8wOM3xP3AAAAABZvP6LW/w5foB59HoBUAAAAAAAAAAAAAAAAAAAAAAAAAAAAAAAAPcNx63863utlMPDGo1P5aVSX7EG/Wn6i+BkVgAAAAAAAAAAAAAiT0QHR9sW1zLuxLIWI5tzNdeb4fZx0hThzq3NV+pRpR9qcnyS+LeiTYGkvb7t3zFvDbQrvNGYKnZx50bDDqc3KjY2+usaUPF98pdZS59NEg85QAAAAAAAAAAAAAAAAAAAAAAAAAuWtrO8rxpU16T730S8WB26ys6djQVKmte9yfWT8QOSAAAAAAAAAqo0u1lz5RXVgWr+8UI9nHlFdEbGCuK7lJgcWUuICAAAAAAs3f9Grf4cv0A8/j0AkAAAAAAAAAAAAAAAAAAAAAAAAAAAAAAAAfQvk+rXzvfG2Zx014LyvV/ltazJRvhhygjIqAAAAAAAAAAAAABTPpy6gaXt/jbpjG1nbvjmFTuZrLOWLurhmHWMX6CnD0a1drvnOSa17oxSXfqHzcnyAnUAAAAAAAAAAAAAAAAAAAAAAAAqpUZ3FWNOnFynJ6JIDtmG4dDD6HCvSqS5zl4/wDgDmICQAAAAAAQ3oBVSpurPRfe/ACLy6jQp9nT5JfmaGBubhzfUo4cpagUpASAAAAAFq6/o1b7Ev0YHny6ICQAAAAAAAAAAAAAAAAAAAAAAAAAAAAAAAB9O+TTtfOt83I2vNUqWIVfws6v/JBvKj0MiQAAAAAAAAAAAAAUz5rl1A0/b/8Au3Y3sr2s4zm+jaTuMm5mvZXlC+pR1jbXVT0qlvV+q3LilB9JJ6dU0B8m1KTovVc4+ACMlJarmBUAAAAAAAAAAAAAAAAAAAAAASc5KMVrJvRJdWB2nCMLVhS45rWvJek/qrwAyKAkAAAAAAEATCDqSUUtWwK7mvC1pcEHz734mhgbq5c2/Eo4M5NsClAAAAAAAAW7n+j1fsS/QDz2PQCQAAAAAAAAAAAAAAAAAAAAAAAAAAAAAACPAD6x8lzb9tviZenpr2OGYjU//YUf+4lG7dGRIAAAAAAAAAAAAAIa1AxOasqYTnXL1/geO4fQxXCL+i6FzZ3UOKnVg+qa/NPqmk1o0BqJ3xdyvFt3fEq2PYIq+L7PLmrpTu5enWw2TfKlcPvj3Rq9HyUtJacQfLFWi6cnKP3oCFJS5oCoAAAAAAAAAAAAAAAAAAAIfMDsmC4T5tFV60fnpL0Yv2F/yBl0gJAAAAAAAAhJyei5t9yAvVakbOk1qnUfV/sawYK7unNvmUY+c9WBQAAAAAAAAAtXHOhUX8Mv0A8+j0AkAAAAAAAAAAAAAAAAAAAAAAAAAAAAAAAhgfY3kobXt97KnU/uMv38/wAZUY/uZo3RIgkAAAAAAAAAAAAAACAOHi2E2WO4ZdYfiNpRvrG6pyo17a4pqdOrCS0lGUXyaa5NMDVFvp7i15sSrXecck29bEMgVJOdxarWpWwdv63fOh4T6w6S5aSA+Nq1FwfFH/8A0CiMlL3PvQFYAAAAAAAAAAAAAAAABGoGdwPCPVua8ffTg/1YGeQEgAAAAAAAQBebVnByl9I1+BZBhry8c2+ZoYypU1YFsAAAAAAAAAAt1/oav2H+gHnq6ICQAAAAAAAAAAAAAAAAAAAAAAAAAAAAAACGB9veSItlV3mcaq9exyxcv8bi3X7GaNxUehBIAAAAAAAAAAAAAAAABZurWleUKlGvThWo1IuE6dSKlGUWtGmnyaa7gNX++xuE1tn8r/PezaxqXGV9ZVsSwKhFyqYcusqtFLnKj3uHWHVax9UPhOrRTSqU2n3prmmgLcZ669zXcBWAAAAAAAAAAAAAABDfMDLYJhPnUlXrL5lP0Yv2mv2A7KgJAAAAAAAAhvRddF3t9wHpuYt3PaFk/ZVhm0i9y7Vllq8i6kpU9ZV7Sl7FatT01hTmualz0WjkoppgeQXWJRuVxwnxJ+BoY2rUcteZRZ6gAAAAAAAAAAC3X+hqfZf6Aeex5xQEgAAAAAAAAAAAAAAAAAAAAAAAAAAAAAAEMD7z8jxa9pt6znX0+iy1w/zXVP8A/qZo26R6EFQAAAAAAAAAAAAAAAAAApnFNNNap9wGuPfb3A5W8sQ2g7L8N1pviuMVyzaQ6PrKvaxX3uVJe9w74ga7KtFSXFDr3MC1GWr0a0l4AVgAAAAAAAAAAAA1A5+E4W7+rxzTjQj1fi/ADtUYKKSilFLkkl0AqAAAAAAAAjryQH2HuOboj2lX9rn7OFnrlO1qcWHWNaPLEqsX68l30Ytf55LTonqGy+pbU6tCVGpTjOlKLhKEopxlFrTRrppp3Aa8N7vycM6kr3Oex20jSuPSrXuUYNRhV75Ss2+UZd/Yv0X7Li+TDXfKdSnc17a5o1LW7oVJUq1vXg6dSnOL0lGUZc4yT6xa1RrRVqUSAAAAAAAAAAW630VT7L/QDzyPqoCoAAAAAAAAAAAAAAAAAAAAAAAAAAAAAAAhgbB/I3W3HtU2jXH93glrT/muJP8A7TNG2FEEgAAAAAAAAAAAAAAAAAABTKOv3AfBe+1uD084PEM/bM7GFLMWrr4ngFBKMMQfWVWguka/e49Knul6wax7u0nCpOnUhOlVpycJwnFxlCSejTT5pp8mnzTQHHjJqXDLk/1ArQAAAAAAAAAAA5WG4fPEK/CtY0485T8P/IHbaNGFCnGnTiowitEkBcAAAAAAAAhgfR255up3W3zMnyxjVGpbZFw2rpdVecXfVVo/N6b8OnHJdE9FzfINsGHYbbYVY21nZUKdpZ21ONKjQowUIU4RWkYxS6JJaJAcrQA0mgPlve23FMsbxVvWx3CZUcsbQacNKeLwp/M3ui9GndQj6y7lUXpx969EDU3tAyDmbZFm+6ytnTCa2C41belwVdHTrU9dFVp1F6NSm+6cfg0nyNSjCdCiQAAAAAAAAFFX6Of2X+gHnkegEgAAAAAAAAAAAAAAAAAAAAAAAAAAAAAAEMDY55Ge14s17UrnT1bLD6f41K7/AGM0bTEQSAAAAAAAAAAAAAAAAAAAACmUdU/ED4w31dxO12wU7zO2RbejYZ5jHtLqyWlOjjCS7+6Ffwn0lyUu6SDVTi2E3OGX11Y31rWsb61qyo17a4g6dWjUi9JQlF81JPuA4Cbi+GXXufiBXqAAAAAAAAAvWVnUvq8adNdebk+kV4gdutbWnZ0Y0qa0iu/vb8WBeAkAAAAAAENgexbsm7ji+8RndWNHtbLLtjKNTFsUivooPpSg3ydWaXJdy1k+SSYbfMnZQwnImWcOy/gdjSw7CcPpKjb21JcoRX6tvVtvm2231AzQEgAIa1A8y277vWTd4jKUsBzbhvbdnrOyxG30hd2NRr16NTTWL8YvWMujTA1BbyG6znTddx5UsapPGMqXNXs8PzHa03GjV8KdWP8AY1f4G+GXPgb6Fg8lhNTipJ6plFRQAAAAAABTU+jn9l/oB52ugEgAAAAAAAAAAAAAAAAAAAAAAAAAAAAAAEMDZr5GK01pbWLnTpPDaWv3XDM0bM10IJAAAAAAAAAAAAAAAAAAAAAAplHUD5T3ytyXCt4DD6uY8uRt8I2hW1LSNxJcFHEoJcqVw10l3Rq9Y9HrHoGpDM2WMTytjd9guN4fXwrF7Gq6N1Z3UOGpRmuqa/NNcmtGm0BhdXTfDLp3MCtMCQAAAAAroUJ3VaNKmuKcnyX7gdtw/D4YfQ4I+lJ85T+swOUgJAAAAAABDYHftiOxfH9u2fLTLWBUnDi0q3l9ODdKyoJ6Sqz/AEjHrJ8vHQNxGybZTgOxrJGH5Yy7bdhY2sdZ1JaOpcVX69Wo/anJ839yWiSA7kBIAAAAhrUDE5lyrhOcsBvsFx3DrbFsJvqTo3NleUlUpVoPqpRfX9uoGrDe58npjWx2d9m7ZtSusw5KjrWusI9Kte4XHvcfar0V486kF14kmwPju2uqd3TU6c1JNa8nry8fejQvFEgAAAABTU+jn9lgedroBIAAAAAAAAAAAAAAAAAAAAAAAAAAAAAABDA2k+RlocOUNqVbT18SsYa/ZoVH/wBxmjZAQAAAAAAAAAAAAAAAAAAAAAAAFLiuoHzjvb7nOA7yWBO/tXRwTPNnS4bHF+D0a0VzVC4S5ypvul60G9Vy1TDT/nzIOO7Oc04hlrM+GVcIxuwnwV7Wsv5ZRfSUJLnGS5NAdYadF6P1e73AVp8gJAAAFOEqs4wguKUnoku8DteFYZHD6PPSVaXrS/Ze4Dn6ASAAAAAAAB2HZ7s/xzajnDDss5dspX2K30+GnDpCEV61ScvZhFc2/wB2kBuD3eNgeB7vuQqOBYYo3WIVmq2JYnKHDUvK+nV+EFzUY9y97bYepoCQAAAAAAAKXFAfCe9/5Oaw2g1L3Oey2jb4HmyTlXu8E1VKzxOXVyh3Uaz8fUm/WSfpAazcSsMQy/jN5guNWFzhGM2NV0LqxvKTpVaNRezKL6Pw7muabRqC2uRRIAAAApqfRy+DA87QEgAAAAAAAAAAAAAAAAAAAAAAAAAAAAAI1Aa6gbk/JS7JsR2f7vV3j2K0KlrcZsxB4lbUai0l5pCnGlRm11XHwzkvGMovvM0fapBIAAAAAAAAAAAAAAAAAAAAAAABTJaoDw7ei3U8tby2VVb3vDheZrKEvkzHKVNOpQfXs6i/tKTfWD6dYtMDTltU2VZk2PZyvcrZtw6WH4rbekmnxUrim36NalP24S05Pu6NJpoDpEoui/GP6AVp6/ACQI5vRLm34AdmwXCfM4dtVXz8l0+ov+QMqBIAAAAAAAHNwHAsRzRjVjhGE2dXEMTvq0be2taEeKdWpLpFL9+iSbeiQG2/dM3YcP3esoOd1Gle5xxKnF4niEVqoLqrek+6nF9/tPm+5IPekgKgAAAAAAAAACmUdUB4BvR7m+T95nBe1vILBM4W1LgscxWtNOrBdVSrR/tqWvsvmusWmBqK2v7HM47v+cJ5ZzthjtK74pWl9R1na31Nf2lGpp6S8Yv04967y6OoqWq1T1T6Nd5oSgAACmfqS+DA87QEgAAAAAAAAAAAAAAAAAAAAAQAAagNQIlLgWsmorxk9EBlcvZVxvN9zG3wHBsRxuvJ6KnhtnUuJP7oRZB7bk3cG2+Z34JWmzrEMNoyWvbY1VpWMUvhUkpf6Ro92yb5H3aRiqpVMy5xy7l+nL1qVnCtfVY+7pTj+bJo+jtknkm9mORMZtcUzRi2J58rW0lUjZXsIW1lKS5pzpQ1lNa+zKWj70xo+3ra3p2tGFKlTjSpU4qMIQioxilySSXRJEF4AAAAAAAAAAAAAAAAAAAAAAAAAAI0A8n3id2/Ku8dkyWC4/R82v6HFPDsYt4rzixqtetFv1oPlxQfKS8Gk0GmvbfsNzTsEztcZZzXZqlW0dS0vqKbt7+jroqtKT7vGL9KL5NdGw82nTdGT0Xo+HgBKlqtU+QHYcDwns1G5rR9P2IvuXiwM2kBIAAAAAAIAro0alzWp0aNOdatUkoQp04uUpyb0UUlzbb5JLrqBtI3Kt0qGxfBY5rzPawnnjEKOkaU9JfJdGS50ov+8ly45L7K5Jth9WRikBUAAAAAAAAAAAAEaAdL2s7IMp7asm3eWc34PRxbC6/pRUvRq0KndVpTXpU5rukvzXIDUTvUbmGbd1+/rYpQdXMuz6pU0o43GCVS01fKndxXKD7lVS4Jd/C3oB4HTqRqx1i9V3rvRoXEygBTN+jL4MDzzvYAAAAAAAAAAAAAAAAAAjUBqA11ApnKNNenJQ+00gOyZU2bZuz3WjSy3lbGsfnJ6L5Nw6tXX4xi1+ZB7nkzyc23/OahNZHeBUJNa1cdvaNrp8YKUp/6Ro93yX5HHOF+6c81bQMHweD5ypYTZVbya93FN04/kxo91yZ5IvZHgahPHsXzLmesvWjUu4WlKX+WlFS/1E0e85K3Kth+QJ06mEbM8B7eGmle/t/PKuq7+Ks5vUg9iwzB7HB7WNtYWlCxt49KNtSjTgvuikgOXwL7/EBwoCdAJAAAAAAAAAAAAAAAAAAAAAAAAAAAAAgDz3bfsMytt+yVcZbzTZ9tRfzlreUtI3FnW00VWlPuku9dJLVNNMDTXvE7uOad3DOTwXMNLzrDrhylhmNUYNUL6muun1KiWnFTfNdVrHRgeb4HhUa1xOtNN06fSPc5f+AOzASAAAAAAABS3otW0kubb7gNim4juhvLlKy2lZ0seHF6sFVwbDLiHO0g1yuKkX0qyT9FP1E9fWfIPuSMdFoBUAAAAAAAAAAAAAABAHGxHDrbFbOvaXtvSu7SvTlSrUK8FOnUg1o4yi+TTXVMDWbvdeTdu8rSvM5bHbSpeYYuKreZRhrKrbrq5Wevrw6vsXzXsP2QPhGhdRrappwqRbjKEk01JPSS0fNNPqnzXeagvIoiS9F/ADzvo2BIAAAAAAAAAAAARqAWr6cwKZVIwkoynGMn0TaT/ADu2Ttim0LaFOMcs5HzFjil0nZYZWlD48bio6e/Ug91yb5Mnb7m1U53GWrHLVCenzmNYnThJf5KfaS/IaPd8meRrxetwzzbtKs7Re1RwPDZVm/hUqyiv9BNHu+TPJO7E8u9lPGPl/NdaPrK/wARdGlL/JQUP1Gj3jJO6fse2d8MsA2b5csqseledhCtWXv7SopS19+pB6nb2lK0pQpUacKNKC0jCnHhil8FyAvKKXcA0AaANAJAAAAAAAAAAAAAAAAAAAAAAAAAAAAAAAAAAAA6dtU2U5Z2yZLvsr5rw2GJYXdLXR+jUo1F6tWlPrCceqkvhzTaYai94DdczJuz5oqWV9x4plm9qt4XjkKekKy0+iqpcoVkusekl6Ue9IPK9QJAAAAAABHVgfa24nuiLON1Z7R852XFgNvNVcHw24hyvaifK4mn1pRa9Fe21r0S1DZDGOjAqAAAAAAAAAAAAAAAAAAFDgmB8gb3/k/sB26O7zXk92+WdoLXaVKnDw2eKNLpcKK1jU8K0ef1lJdA1WZsytj2zrNF7lnNmE3OBY7ZS4a9pdx0kk+k01ynB9VOOsWa0Y99GUed97+IEgAAACAGoDUCeb6Jv4AUwfa1VSg1Oq+lOPpSfwS5gekZM3bdqu0Lgll7Z1mXE6U+leOHVKVH/wDUqKMfzJo93yX5K/brmh05YjY4JlWjJa8WK4kpzS+xRU/1Q0e7ZN8jVHSE827TKkny4rfA8MUV79KlWUv/AOJNHvGTfJabBsrunO+wfFs01Y9XjOJ1HFv7FLs4/kNHvGSd3fZls6pwWW8g5dwecHrGtb4bS7Vf/iNOX5kHoUaShFRikorkkui+4CVBICdOQEgAAAAAAAAAAAAAAAAAAAAAAAAAAAAAAAAAAAAAAAAAAAIAwWdck4JtDy5e4BmLDaGK4Rew7OtbXEdVJdzT6xknzUlo0+aYGq7eo3Pcb2A39bGMKdfG8i1Z/N37XFWsW3yp3Gn4KryUu/R9Q+dfcBIAAAAhsD6f3Lt0yrtvx6GZcyW86eRcOq6ShLWLxOtF/Qxf92vbkvsrnxNBtTs7SjZWtK3oUoUKFKCp06VKKjGEUtFFJckkuSSAvgAAAAAAAAAAAAAAAAAAAAhoDx/eL3X8l7yuV/k7Mto7fFLaMnh2OWaUbuxm/qy9qDfrU5axfufNBqB2/buedt2XM8cKzVaK5wm5m4Ybj1pB+aXq8E39HUS60pPX6raLB87PlKXxZoAI1ALV9FyArs6FXEbiNC0pVLuvJ6KlbwdSbfujHV/kB6zk3dH2z5/VOWC7M8xVqNTThuLqzdpS5/x1nBE0e7ZN8k1tpzA4yxq5y5lWk9OJXV7K6qr/AC0YuP8AqGj3fJnkbMCt1SqZs2j4nfy6zt8GsKdrH4KdR1H+SJo92yZ5M3YDlLhnWylXzHWjp87jmIVrhN+PAnGH3cI0e75P2OZG2f04Qy1k7AsBUOSeH4dSoy/mjHX8yDuCjy58/iBUloAeiQHErXUuPs6MHUn4LoviBarRuKNGdatXp0oQXE9It8gCrXVvCM6lPihom+Hm4/FAcyhXjXgpRaaYFutc8EpJc+GLk/gBR55UnFSp0pTi+9AR51X/APu8/wAgK1dNRfHFwa7mBS7urr9BU/lAeeVf7ip/KAV5UXrUZpd7a6AcmnNVIqS6AVgcS6v4W65vTnoBQsRjCtOlU5Sj+AFTxBS9SE5/Zi2BXC4nxaTjwNrXmBRO+UdZargUuFvXowJleSlr2UJVEu+IEK7rd9CaXjoBddyuyU+4C07qum9KE/wAhXdd/wD2ef4AXKV05TUZwcJPnowOSAAAAAAAAAAAAAAAAAAAAAAAAcTEcNtcUsbm0vLeld2lxTlSrUK8FOnUhJaSjKL5NNN6pga2d7fcXutnvnucNntrVvsrrWteYNBOpWw5dXKn3zorw5yh749A+Nk9UmnqnzTXRgSBIEAe37q27NiW8RnPgq9tZZRw6cZYpiMFo33qhSf95Jd/sx5vuTDbvlvLeGZRwKxwbBrKjh2F2NGNC2taEdIU4R6Jf89W9W+oGTAAAAAAAAAAAAAAAAAAAAAAAQ1qB17PWQ8v7Scr32Xcz4RbY3gt7Dgr2d3DihJdzXepLqpLRp800wNW+3nyTWdcIzTXutll3Z5hy7czc6djil5G3vLTX2HOS4KsV3S1UvFPq7ow2TfJE7WMb4KmYMwZayzSbXFTjVq3tVfdCMY/6i6Pd8m+R0yRYSpzzRnvHsba9alh1CjY037tWqkvzJo93yb5OrYDkxU5QyFbY1cQ/t8cuKt638Yzlwf6SD3TLGz7LOSaCo5ey9hWBUktODDbKnbrT/JFAZ7s1y79PECeECdAJAAAAHGvqzo0JNc33fEDi1ZSwl0q0nxUJaQrv6rfSfw15P7vACjEq0a95QoS1dCm1Vq6LXia5xj+PP7kBe+WaUn6FC5qLxhQk1+IFqjVVO51hTqUqdXmo1I8Oj7wKajpdpddoq3F2EuLRrTh93vA4lFUmrrRJ03QfKtLRaarq0BRhsKCvrfhhaKWr0cK0nLp3J9QL9s4/J74Xz1Apu6XaXt1KdZ0aMZLjnxdFp0S8QKJ0adW+aVK4p0muLtYVV2XD466AXLWMe2quE5yg6U+HifPQDKWM1G1hq+4DkqcZJ6PUDG1o3M6lVUZTguFuLjppxeDA4tP5SdpUlN1u1clGEOXTvbAQVxOhZumqsqXZ+koPlrr3gculHhho6UqevLWXeBZb0uZUuwoqlJcVWXP1VzA4M5t4bXktaadwmkn0WnQDkUqaoYlOnGUnHsW9JS16oDkpv5Op/FAYzEqlmr25VSrdRnxekocOn3cwKsQqWau12lW5jLso8o8OmmnLv6gc6zcW7N03OVPs3o59eveBmQAAAAAAAAAAAAAAAAAAAAAAACAKJx1A+F97jcNhjnn2c9mdlCjibcq99l2glGFy+sqlsukaj6un0l3aPqGvStRqW1apSrQnSq05OE6dSLjKMk9GmnzTT5NPowKdQPSdgWwvHdv+fLfL+ERdtaU9KuI4nKGtOyoa+s/Gb00jHvfuTYG4TZrs3wLZPk3Dcs5bs1Z4XZQ4YpvWdWT5yqTl7U5PVt/skgO1oCQAAAAAAAAAAAAAAAAAAAAAAACGtQGiAaANAJAAAAAAAAAAOFiXKnCXdGSb+CYFNzidmoSp1XKUZJxcVSlJNfcgOFh1xSt6c4qM5U16s5wa1Xv1QF6zunb3ShJrsaz0X8E9NUn8UBexN617WK9bicvu0/8gWJuDncyqTdSXm8taUVpy7+fiBwqNXWNOMa9O2dZuMaTt3Pv6cXf3AVQrztuKtUvKVOFKq6bSttU3z06cwLtRVIRlCpV7aSSfFw8PXn0Ai5pU5Xl050FWlxcuKT06LuQFuNaVT0adelwRXpWlSmox+7xAv0oKNZuNNU/mZ66SbT5AcqjFu2pPh44rrHxAv2sGnN8PDFvVR8AMXi1OjJT7WpVhpzfZx10XiBbvqdv55OcqtdSjTinpD0Vy5cwKbik3Qs0pSjpST5PTqwOfKL88uZJvXVaavkuSAs1KtBWtxTcJ1I8cY1KiejbfevcgONcUuCxqUYy45SrLg5aNrTQDkvli9SUlw03BwjJ9+i0f5gX4wn5rGlCPFPT8AOOri4VOuo3Ma9WOnE+FcNNN93LmwLqqXMJTVSvrDsnNz4VxQ071y5/ACLOVZSjUq1FdQ00jVgklp70ugGXi+JJgSAAAAAAAAAAAAAAAAAAAAAAAAAIktUB8ob3G5Rh+2OjdZpylChhWeIxc6tN6QoYokvVqPpGrpyVTv6S1WjQa7cl7F83Z42m08g2WEV7bMirSpXNveQdPzNRfp1K31YRXPXv1SjrxIDbzsI2HYBsGyJa5dwSn2tXlVvsQqRSq3tdrSVSXgu6MekVovFsPSEtEBIAAAAAAAAAAAAAAAAAAAAAAAAAAAAAAAAAAAAAAAAW61NVabi+8Di21z2DVCu+FrlGb6SX/IFvF6spKFGOnD69Rvpp3J/F/kmBwYUZVE+OM2n60p8m+fd4c+a070BkbehOpU7as9ZKKiuXcBYrxfFc1HwqMqMoLnzb+AFq2k7aEHWfEpNdnCKUnB/W9wFq2t420Zu4lGrbyenAlq5tPk9O4C7OE1GpKU41XOXEpx8Ph3AVV4TjeV5RuaUNXqk5NNcvgBaarSl87WtLiP8AHqmvvSAuUISdWrLtaUo9nLSEJNtfigMjYR0toJ+AHIfJMDDYhCpVoVadJcdavLh06aRXMCi5oylc3EEk4VacabevJNdH9wFytR4+NxT4IJU4/BAcyhDW8udVyb/YDi3FPhpV9F/aRYCWsHGpJKdVLWnSjz59zYHHVvWlQteGcO0i59pxy0erlrqBy5RVR1FFcUG9I8+TAt0rdRTowanKclKpKPRadEgL9am+0rLTk6El+gFVnZQVGLS4Xpz94HOS0WgEgAAAAAAAAAAAAAAAAAAAAAAAAABDWoGMo5cwy3x25xmlh9rTxa5pQt619CjFVqlKDbjCU9NXFNvRPpqBk0gJAAAAAAAAAAAAAAAAAAAAAAAAAAAAAAAAAAAAAAAAAAAt1aEK0dJRT+IHHjh0IP0JSh9mTQF2naxg9er8WBe0SWgFqVrTlLicU2BKtoJ+qgI82p668K1+AE+bw000WgFKs6S9lAT5rT+qgIdpSb14UBejFRWiAkC1Ut4VFzWoCFvCEdEkkBV2UeHTTkAhSjT6LQCmVvCb1a1ARt4QeqS1AidpTm9XFNgVdhDh4dOQEwoxp+qtAInRjUerWoFcYqK0QEgAAAAAAAAAAAAAAAAAAAAAAAAAAAAAAAAAAAAAAAAAAAAAAAAAAAAAAAAAAAAAAAAAAAAAAAAAAAAAAAAAAAAAAAAAAAAAAAAAAAAAAAAAAAAAAAAAAAAAAAAAAAAAAAAAAAAAAAAAAAAAAAAAAAAAAAAAAAAAAAAAAAAAAAAAAAAAAAAAAAAAAAAAAAAAAAAAAAAAAAAAAAAAAAAAAAAAAAAAAAAAAAAAAAAAAAAAAAAAAAAAAAAAAAAAAAAAAAAAAAAAAAAAAAAAAAAAAAAAAAAAAAAAAAAAAAAAAAAAAAAAAAAAAAAAAAD/2Q==;" vertex="1" parent="1">
          <mxGeometry x="720" y="700" width="60" height="40.8" as="geometry" />
        </mxCell>
        <mxCell id="Mc-il4vVqWPl5HhSfTiv-128" value="" style="rounded=1;whiteSpace=wrap;html=1;dashed=1;dashPattern=1 4;labelBackgroundColor=#FFFFFF;strokeWidth=2;fontFamily=Times New Roman;fontSize=12;" vertex="1" parent="1">
          <mxGeometry x="85" y="910" width="125" height="60" as="geometry" />
        </mxCell>
        <mxCell id="Mc-il4vVqWPl5HhSfTiv-129" value="&lt;span style=&quot;background-color: rgb(255, 229, 153);&quot;&gt;代码仓库&lt;/span&gt;" style="rounded=0;whiteSpace=wrap;html=1;labelBackgroundColor=#FFFFFF;strokeWidth=2;fontFamily=Times New Roman;fontSize=12;fillColor=#fff2cc;strokeColor=#d6b656;" vertex="1" parent="1">
          <mxGeometry x="85" y="1000" width="90" height="40" as="geometry" />
        </mxCell>
      </root>
    </mxGraphModel>
  </diagram>
</mxfile>
